<?xml version="1.0" encoding="UTF-8"?>
<svg xmlns="http://www.w3.org/2000/svg" version="1.1" viewBox="0 0 48 48" fill="none" stroke="#2b2b2b" stroke-linecap="round" stroke-linejoin="round" stroke-width="1.5">
    <path id="gear" style="transform-origin: 24px 24px;" d="M29.3,4.9l.4,4.4c.2,2.1,2.4,3.4,4.3,2.5l4-1.9,5.3,9.1-3.6,2.5c-1.7,1.2-1.7,3.7,0,4.9l3.6,2.5c-3.3,5.6-2,3.5-5.3,9.1l-4-1.9c-1.9-.9-4.1.4-4.3,2.5l-.4,4.4h-10.5s-.4-4.4-.4-4.4c-.2-2.1-2.4-3.4-4.3-2.5l-4,1.9-5.3-9.1,3.6-2.5c1.7-1.2,1.7-3.7,0-4.9l-3.6-2.5,5.3-9.1,4,1.9c1.9.9,4.1-.4,4.3-2.5l.4-4.4h10.5Z" />
    <circle cx="24" cy="24" r="6.7"/>
    <animateTransform
            attributeName="transform"
            type="rotate"
            values="0;180"
            dur="1700ms"
            easing="ease-in-out"
            repeatCount="1" />
</svg>
