<?xml version="1.0" encoding="UTF-8"?>
<svg xmlns="http://www.w3.org/2000/svg" version="1.1" viewBox="0 0 48 48">
    <g id="feather" fill="none" stroke="#2b2b2b" stroke-width="1.5" stroke-linecap="round" stroke-linejoin="round">
        <path d="M9.2,36.6s14.5-1.3,19.5-17.1c0,0,.3-1.1,1.3-.8s.8,1.2.8,1.2c0,0-3,15.9-21.6,19.1,0,0-.6,0-.8-1s.8-1.3.8-1.3Z" />
        <path d="M12.8,35.8s2.2-5.1,4.6-7.9l2.9.3-1.2-2.3s4.1-3.6,5.8-10.9c0,0,1.7-.4,3.1-.5,0,0-1.2-.7-1.6-1.9,0,0,3.2-4.8,6.7-4.6s5.2,7.9,4.9,10.2c0,0-1.4,1.1-2.8.9,0,0,1.1,1.3,2.1,1.8,0,0-.6,4.5-3.9,8.7,0,0-1.3.2-2.6-.2,0,0,.7,1.2.9,2.1,0,0-5.6,10.2-18.5,6.7" />
        <path id="motion1" d="M39.2,27.9s-2.4,6.2-9.5,10.7" />
        <path id="motion2" d="M39.6,34s-1.4,3.4-6,6.2" />
        <animateTransform
                attributeName="transform"
                attributeType="XML"
                type="translate"
                values="0 -10;0 0"
                dur="1s"
                fill="freeze"
                repeatCount="1"
        />
    </g>
</svg>