<?xml version="1.0" encoding="UTF-8"?>
<svg id="Capa_1" xmlns="http://www.w3.org/2000/svg" version="1.1" viewBox="0 0 210 50" height="60">
  <polyline points="32.99 10.63 28.9 3.51 15.94 3.51 9.47 14.72 15.94 25.95 28.9 25.95 32.99 18.84" fill="none" stroke="#fc635b" stroke-linecap="round" stroke-linejoin="round" stroke-width="2.4"/>
  <polyline points="34.74 37.16 42.9 37.16 49.38 25.95 42.9 14.72 29.96 14.72 26.6 20.53" fill="none" stroke="#2dc16f" stroke-linecap="round" stroke-linejoin="round" stroke-width="2.4"/>
  <polyline points="10.85 25.54 6.77 32.62 13.25 43.83 26.21 43.83 32.67 32.62 30.9 29.55" fill="none" stroke="#4d9fd6" stroke-linecap="round" stroke-linejoin="round" stroke-width="2.4"/>
  <g>
    <path d="M80.25,20.52c-.61-1.18-1.46-2.07-2.55-2.67-1.09-.6-2.35-.9-3.77-.9-1.56,0-2.96.35-4.18,1.05-1.22.7-2.18,1.7-2.87,2.99-.69,1.29-1.04,2.79-1.04,4.49s.34,3.2,1.04,4.5c.69,1.3,1.65,2.31,2.87,3.01,1.22.7,2.62,1.05,4.18,1.05,2.11,0,3.82-.59,5.13-1.77,1.31-1.18,2.12-2.78,2.41-4.79h-8.87v-3.09h13.02v3.03c-.25,1.84-.9,3.53-1.96,5.07-1.05,1.54-2.43,2.77-4.11,3.69s-3.56,1.38-5.63,1.38c-2.22,0-4.25-.52-6.09-1.55s-3.29-2.47-4.37-4.3c-1.08-1.84-1.62-3.91-1.62-6.22s.54-4.39,1.62-6.22c1.08-1.84,2.54-3.27,4.39-4.3,1.85-1.03,3.87-1.55,6.07-1.55,2.52,0,4.75.62,6.71,1.85,1.96,1.24,3.38,2.99,4.27,5.25h-4.66Z" fill="#f2f2f2"/>
    <path d="M95.44,19.11c.94-.53,2.06-.8,3.35-.8v4.01h-.99c-1.52,0-2.67.39-3.45,1.16-.78.77-1.17,2.11-1.17,4.01v9.86h-3.88v-18.73h3.88v2.72c.57-.95,1.32-1.69,2.26-2.23Z" fill="#f2f2f2"/>
    <path d="M101.52,22.9c.78-1.45,1.85-2.58,3.2-3.38,1.35-.8,2.84-1.21,4.47-1.21,1.47,0,2.76.29,3.86.87,1.1.58,1.98,1.3,2.63,2.16v-2.72h3.91v18.73h-3.91v-2.79c-.66.88-1.55,1.62-2.69,2.21-1.13.59-2.43.88-3.88.88-1.61,0-3.08-.41-4.42-1.24-1.34-.83-2.4-1.98-3.18-3.47-.78-1.48-1.17-3.17-1.17-5.05s.39-3.55,1.17-5ZM114.88,24.6c-.53-.95-1.23-1.68-2.09-2.18-.86-.5-1.79-.75-2.79-.75s-1.93.24-2.79.73c-.86.49-1.56,1.2-2.09,2.14-.53.94-.8,2.06-.8,3.35s.27,2.43.8,3.4c.53.97,1.24,1.72,2.11,2.23.87.51,1.8.76,2.77.76s1.93-.25,2.79-.75c.86-.5,1.56-1.23,2.09-2.19.53-.96.8-2.09.8-3.38s-.27-2.41-.8-3.37Z" fill="#f2f2f2"/>
    <path d="M130.75,19.19c1.13-.59,2.41-.88,3.84-.88,1.63,0,3.12.4,4.47,1.21,1.35.8,2.41,1.93,3.18,3.38.77,1.45,1.16,3.12,1.16,5s-.39,3.56-1.16,5.05c-.77,1.49-1.83,2.64-3.18,3.47-1.35.83-2.84,1.24-4.47,1.24-1.43,0-2.7-.29-3.81-.87-1.11-.58-2.02-1.3-2.72-2.16v11.63h-3.88v-27.64h3.88v2.75c.66-.86,1.55-1.59,2.69-2.18ZM138.66,24.55c-.53-.94-1.24-1.65-2.11-2.14-.87-.49-1.81-.73-2.81-.73s-1.9.25-2.77.75c-.87.5-1.58,1.22-2.11,2.18s-.8,2.07-.8,3.37.27,2.42.8,3.38,1.24,1.69,2.11,2.19c.87.5,1.8.75,2.77.75s1.93-.25,2.81-.76c.87-.51,1.58-1.25,2.11-2.23s.8-2.11.8-3.4-.27-2.41-.8-3.35Z" fill="#f2f2f2"/>
    <path d="M153.45,19.19c1.13-.59,2.41-.88,3.84-.88,1.63,0,3.12.4,4.47,1.21,1.35.8,2.41,1.93,3.18,3.38.77,1.45,1.16,3.12,1.16,5s-.39,3.56-1.16,5.05c-.77,1.49-1.83,2.64-3.18,3.47-1.35.83-2.84,1.24-4.47,1.24-1.43,0-2.7-.29-3.81-.87-1.11-.58-2.02-1.3-2.72-2.16v11.63h-3.88v-27.64h3.88v2.75c.66-.86,1.55-1.59,2.69-2.18ZM161.36,24.55c-.53-.94-1.24-1.65-2.11-2.14-.87-.49-1.81-.73-2.81-.73s-1.9.25-2.77.75c-.87.5-1.58,1.22-2.11,2.18s-.8,2.07-.8,3.37.27,2.42.8,3.38,1.24,1.69,2.11,2.19c.87.5,1.8.75,2.77.75s1.93-.25,2.81-.76c.87-.51,1.58-1.25,2.11-2.23s.8-2.11.8-3.4-.27-2.41-.8-3.35Z" fill="#f2f2f2"/>
    <path d="M186.79,29.43h-14.31c.11,1.5.67,2.7,1.67,3.6,1,.91,2.22,1.36,3.67,1.36,2.08,0,3.56-.87,4.42-2.62h4.18c-.57,1.72-1.59,3.13-3.08,4.23s-3.33,1.65-5.52,1.65c-1.79,0-3.4-.4-4.81-1.21-1.42-.8-2.53-1.94-3.33-3.4-.8-1.46-1.21-3.16-1.21-5.08s.39-3.62,1.17-5.08c.78-1.46,1.88-2.59,3.3-3.38,1.42-.79,3.04-1.19,4.88-1.19s3.34.39,4.73,1.16,2.46,1.85,3.23,3.25c.77,1.39,1.16,3,1.16,4.81,0,.7-.05,1.34-.14,1.9ZM182.88,26.3c-.02-1.43-.53-2.57-1.53-3.43-1-.86-2.23-1.29-3.71-1.29-1.34,0-2.48.42-3.43,1.27s-1.52,2-1.7,3.45h10.37Z" fill="#f2f2f2"/>
    <path d="M196.53,19.11c.94-.53,2.06-.8,3.35-.8v4.01h-.99c-1.52,0-2.67.39-3.45,1.16-.78.77-1.17,2.11-1.17,4.01v9.86h-3.88v-18.73h3.88v2.72c.57-.95,1.32-1.69,2.26-2.23Z" fill="#f2f2f2"/>
  </g>
</svg>