<svg version="1.1" id="Graphery" xmlns="http://www.w3.org/2000/svg" viewBox="0 0 720 150">
    <g>
        <path fill="#D80000" d="M29.8,58.8c0,3.3,2.7,6,6,6h107.7c3.3,0,6-2.7,6-6s-2.7-6-6-6H35.8C32.5,52.9,29.8,55.5,29.8,58.8
			C29.8,58.8,29.8,55.5,29.8,58.8z"/>
        <path fill="#00D800" d="M29.8,77.4c0,3.3,2.7,6,6,6h155.6c3.3,0,6-2.7,6-6c0-3.3-2.7-6-6-6H35.8C32.5,71.4,29.8,74.1,29.8,77.4
			C29.8,77.4,29.8,74.1,29.8,77.4z"/>
        <path fill="#0000D8" d="M29.8,95.9c0,3.3,2.7,6,6,6h83.8c3.3,0,6-2.7,6-6c0-3.3-2.7-6-6-6H35.8C32.5,89.9,29.8,92.6,29.8,95.9
			C29.8,95.9,29.8,92.6,29.8,95.9z"/>
        <path d="M236.8,124.9c0-1.6,0.7-2.3,2.2-2.3c0.4,0,0.8,0.1,1.1,0.2c0.3,0.2,0.6,0.4,0.9,0.6s0.7,0.6,1.2,1.2c0.6,0.5,1.2,1,1.8,1.5
		c3.4,2.8,7.8,4.2,13,4.2c6.6,0,11.5-1.8,14.6-5.4c3-3.6,4.5-8.8,4.5-15.6v-8.2c-4.8,4.4-10.9,6.6-18.1,6.6
		c-7.1,0-12.9-2.6-17.4-7.7c-4.6-5.5-6.9-12.5-6.9-21c0-8.5,2.3-15.4,6.9-20.7c4.3-5.1,10.1-7.7,17.3-7.7c6.7,0,12.8,2.1,18.3,6.4
		v-3.8c0-0.7,0.3-1.3,0.8-1.8c0.5-0.5,1.2-0.7,1.9-0.7c0.7,0,1.4,0.2,1.9,0.7c0.5,0.5,0.8,1.1,0.8,1.8v55.4c0,8.6-2.1,15.1-6.2,19.5
		c-4,4.4-10,6.6-18.1,6.6c-6.3,0-11.5-1.6-15.7-4.7C238.4,128.1,236.8,126.4,236.8,124.9z M258.5,103c7.1,0,13-2.3,17.6-7V62.1
		c-5.4-4.5-11.3-6.7-17.6-6.7c-5.9,0-10.6,2.2-14.1,6.7c-3.4,4.2-5.1,9.9-5.1,17c0,7.2,1.7,13,5.1,17.4
		C247.9,100.8,252.6,103,258.5,103z"/>
        <path d="M322.1,50.7c4.1,0,7.5,0.9,10.3,2.7c2,1.3,2.9,2.6,2.9,3.8c0,0.7-0.2,1.2-0.7,1.7c-0.5,0.5-1.1,0.7-1.7,0.7
		c-0.4,0-0.8-0.1-1.2-0.2c-0.4-0.2-0.9-0.5-1.7-1c-0.8-0.5-1.6-0.9-2.4-1.3c-1.8-0.9-3.9-1.3-6.2-1.3c-4.6,0-8.3,2-11.2,5.9
		c-3.1,4.2-4.7,9.5-4.7,15.8v28.1c0,0.7-0.3,1.3-0.8,1.8c-0.5,0.5-1.2,0.7-1.9,0.7c-0.7,0-1.4-0.2-1.9-0.7c-0.5-0.5-0.8-1.1-0.8-1.8
		V53.2c0-0.7,0.3-1.3,0.8-1.8c0.5-0.5,1.2-0.7,1.9-0.7c0.7,0,1.4,0.2,1.9,0.7c0.5,0.5,0.8,1.1,0.8,1.8v8.7h0.1
		c1.2-3.4,3.3-6.2,6.2-8.2C314.8,51.7,318.2,50.7,322.1,50.7z"/>
        <path d="M337.7,92.1c0-7,3.9-11.9,11.8-14.7c4.8-1.7,13.6-3,26.2-3.9v-1.8c0-5.3-1.1-9.4-3.4-12.1c-2.4-2.9-6.2-4.3-11.5-4.3
		c-4.3,0-8.4,0.8-12.3,2.5c-0.9,0.4-1.8,0.9-2.6,1.3c-0.9,0.5-1.5,0.8-2,1c-0.5,0.2-0.9,0.3-1.3,0.3c-1.4,0-2.1-0.7-2.1-2.2
		c0-1.3,1.8-2.8,5.3-4.4c4.5-2,9.6-3.1,15.3-3.1c7,0,12.2,1.9,15.6,5.8c2.9,3.6,4.4,8.7,4.4,15.2v33.7c0,0.7-0.3,1.3-0.8,1.8
		c-0.5,0.5-1.2,0.7-1.9,0.7s-1.4-0.2-1.9-0.7c-0.5-0.5-0.8-1.1-0.8-1.8v-1.6c-5.5,2.8-11.3,4.2-17.5,4.2c-5.4,0-10.2-1.3-14.3-4
		C339.8,101.3,337.7,97.3,337.7,92.1z M359.5,103.6c5.7,0,11.1-1.5,16.2-4.5V77.8c-10.9,0.7-18.2,1.6-22.1,2.7
		c-7.3,2.3-10.9,6-10.9,11.3c0,4,1.7,7,5,8.9C351,102.6,354.9,103.6,359.5,103.6z"/>
        <path d="M402,51.7c3.9-0.7,8.1-1,12.6-1c9.6,0,17.2,2.5,22.9,7.6c6,5.1,8.9,12.1,8.9,20.8c0,8.3-2.4,15.2-7.1,20.5
		c-5.3,5.6-12,8.3-20.1,8.3c-5.8,0-10.8-1.1-15.1-3.2v27.7c0,0.7-0.3,1.3-0.8,1.8c-0.5,0.5-1.2,0.7-1.9,0.7s-1.4-0.2-1.9-0.7
		c-0.5-0.5-0.8-1.1-0.8-1.8V55.3C398.8,53.3,399.9,52.1,402,51.7z M404.2,55.9v44.2c4.3,2.2,9.2,3.3,14.7,3.3
		c6.5,0,11.8-2.2,16.1-6.7c4.1-4.2,6.1-10.1,6.1-17.6c0-7.3-2.3-13.1-6.9-17.4c-4.8-4.4-11.2-6.6-19.2-6.6
		C410.9,55.1,407.3,55.4,404.2,55.9z"/>
        <path d="M505.2,105.3V75.8c0-7.6-1.8-13-5.3-16.2c-2.9-2.7-7.2-4-12.7-4c-7.4,0-12.9,3.2-16.5,9.7c-2.3,4.3-3.4,8.9-3.4,13.8v26.2
		c0,0.7-0.3,1.3-0.8,1.8c-0.5,0.5-1.2,0.7-1.9,0.7s-1.4-0.2-1.9-0.7c-0.5-0.5-0.8-1.1-0.8-1.8V24.7c0-0.7,0.3-1.3,0.8-1.8
		c0.5-0.5,1.2-0.7,1.9-0.7s1.4,0.2,1.9,0.7c0.5,0.5,0.8,1.1,0.8,1.8v38.2c4-8.2,10.9-12.3,20.8-12.3c6.7,0,12,1.6,15.8,4.8
		c4.4,3.9,6.6,10.3,6.6,19v30.9c0,0.7-0.3,1.3-0.8,1.8c-0.5,0.5-1.2,0.7-1.9,0.7s-1.3-0.2-1.8-0.7S505.2,106.1,505.2,105.3z"/>
        <path d="M573,97.4c0.6,0,1.1,0.2,1.5,0.7c0.4,0.5,0.6,1,0.6,1.6c0,1.1-1.1,2.2-3.3,3.6c-5.5,3.1-11.6,4.7-18.4,4.7
		c-9.1,0-16.4-3.1-21.8-9.4c-4.5-5.3-6.7-12-6.7-20c0-7.8,2.4-14.4,7.1-19.6c4.8-5.5,11.5-8.2,20-8.2c7.8,0,14,2.6,18.9,7.8
		c4.4,4.8,6.6,10.9,6.6,18.4c0,2.3-1.1,3.4-3.2,3.4h-43.7c0.2,6.1,2,11.1,5.1,14.8c4.2,5.4,10.3,8.1,18,8.1c5.8,0,10.9-1.2,15.2-3.7
		c0.5-0.2,1-0.5,1.5-0.9c0.5-0.3,0.9-0.6,1.1-0.7c0.2-0.2,0.5-0.3,0.8-0.4C572.4,97.4,572.7,97.4,573,97.4z M530.4,76.2h41.7
		c-0.1-6.1-1.8-10.9-5.3-14.5c-3.7-4.2-8.7-6.4-15-6.4c-7.1,0-12.6,2.4-16.4,7.1C532.4,66,530.7,70.6,530.4,76.2z"/>
        <path d="M614.4,50.7c4.1,0,7.5,0.9,10.3,2.7c2,1.3,2.9,2.6,2.9,3.8c0,0.7-0.2,1.2-0.7,1.7c-0.5,0.5-1.1,0.7-1.7,0.7
		c-0.4,0-0.8-0.1-1.2-0.2c-0.4-0.2-0.9-0.5-1.7-1c-0.8-0.5-1.6-0.9-2.4-1.3c-1.8-0.9-3.9-1.3-6.2-1.3c-4.6,0-8.3,2-11.2,5.9
		c-3.1,4.2-4.7,9.5-4.7,15.8v28.1c0,0.7-0.3,1.3-0.8,1.8c-0.5,0.5-1.2,0.7-1.9,0.7s-1.4-0.2-1.9-0.7c-0.5-0.5-0.8-1.1-0.8-1.8V53.2
		c0-0.7,0.3-1.3,0.8-1.8c0.5-0.5,1.2-0.7,1.9-0.7s1.4,0.2,1.9,0.7c0.5,0.5,0.8,1.1,0.8,1.8v8.7h0.1c1.2-3.4,3.3-6.2,6.2-8.2
		C607,51.7,610.5,50.7,614.4,50.7z"/>
        <path d="M680,50.7c0.7,0,1.4,0.3,2,0.8c0.6,0.5,0.9,1.2,0.9,1.9s-0.2,1.7-0.7,2.8l-21.4,53.3c-3.2,8.3-6.8,14.6-10.8,18.9
		c-4,4.3-9,6.5-14.9,6.5c-0.8,0-1.5-0.3-2-0.8c-0.5-0.5-0.7-1.2-0.7-1.9s0.2-1.4,0.7-1.9c0.5-0.5,1.1-0.8,2-0.8
		c4.6,0,8.4-1.6,11.4-4.9c3-3.3,5.9-8.3,8.7-15l-23.8-53.9c-0.4-1-0.6-1.7-0.6-2.2c0-0.8,0.3-1.5,0.8-2c0.6-0.5,1.2-0.8,2-0.8
		c1.3,0,2.2,0.6,2.6,1.9l21.4,50.4l19.8-50.1C678,51.4,678.9,50.7,680,50.7z"/>
    </g>
</svg>
