<svg xmlns="http://www.w3.org/2000/svg" viewBox="0 0 854 541" fill="#eee" stroke="#bbb" stroke-width="0.5">
	<path id="AL" d="M509.2 415.9c1.4 2.1 3.5 4 5.8 5.1 1.8 3 1.9 8.1.5 10.9.5 3.7 2.6 6.6 4.6 9.6 1.3-.5 3.3.4 2.9 2 3.1 3.3-2.3 5.1-2.6 8.3.4 3.1-3 2.3-4.5 4.1 1.5 1.9.2 2.6-.2 4.4-1.5 1.7-4.2-.8-4.1-2.7-.9-3.2-5.8-4.3-7.8-6.4 1.4-2.7-1.9-5.1-.8-7.9 1.9-3.7-.7-8.3.4-12 2-2 .3-5.1-2.4-4.8 0-.4.1-3.4-.3-3.7 4 0-2.8-1.3 3.2-8.1 3 1.4.5 3.5 5.3 1.2z"><title>Albania</title></path>
	<path id="AD" d="M277.9 416.6c-2.6 1.8-5.1.5-2.6-2.1 1.2.4 3.3.3 2.6 2.1z"><title>Andorra</title></path>
	<path id="AM" d="M829.1 460.3c-8.9-10.2-12.6.9-17.5-12.1 2.2-1.9.7-5.1-.5-7-4.1-2.6-2.5-3.1 1.4-3.1 2-.6 6.4-1.7 8.5-1 .7-.3 3.8-.2 4.6-.3-1.5-1.2 1.3-.8 1.8-1.2.5 1.4 4.1 2.2 2 3.4 1.9.9 6.4 1.7 6.8 4.2-.7.5-2.3 1.5-2.1 2.6 2 2.7 5.7 5.2 8.8 6.3.7 2.6-1.3 4-3.7 3.4 1.3 1.8 6.9 5 8.6 6.5 2.3-.9 5.4 1.1 2.9 3.3 5.8 4-1.1 2.2 2.3 4.9 1.6 3.8-1.8 2-4.2 3-1.9-2.4-3.1-6.7-6-7.8.2-.9 0-2.2-.7-2.9-5.9 2-3.4-.3-7.7-.3-.3-2.9-3.2-3-5.3-1.9z"><title>Armenia</title></path>
	<path id="AT" d="M462.3 322.8c-3.2 4.6 5 7.5 1.9 11.6 2.5 5-6-.3-7 2.8 3.7.2 3.9 3.3.4 4.4.1.6.7 1.8-.1 2.2.8.8 1.3 2.3.8 3.4-2.4.2-6 2.3-5.7 5-2-.8-4.5-.4-6.3.8-2.6-.2-6.8-.8-8.3 2-3.5 2.2-9.2 0-13-.4-4.4-.9-12-1.1-16.3-2.8-4.8-3.8-.8-7.3-7.8-4.3-5.9-.5-6.4-.5-10.2 3.3-1.9-.2-4-1.7-6-1.5-.1-.7-.5-1.8-1.3-1.8-.9 1.3-2.7 2.3-4.3 1.5-.6-.3-1.9-.9-1.9-1.8-.2-.4-4.5-.2-3-1.6-2.1-2.1.8-5.1-1-6.2.7-.2 1.9-.5 2.4-1 2 .9 5.8 2.6 5.5 4.6 2-.1 2.8-2.2 2.8-4 6.2-1.2 5.4 3.2 10.7 1.7 2.3-2.3 7.6-2.7 10.7-2.9-.5-2.5 2.4-.9 3.6-.3 4.2-1.8 3.1 2.2 6.7 2.4.4-1.6.5-3.9-1.7-3.7 1.7-1.9-.8-4.1-2-5.4 1.5-4 8.6-2.4 8.3-7.8 2.7 1.8 4.1-.1 3.8-2.8.9.5 2.7 1.4 3 2.5 2.4.8 5.5-.6 7.8.1.2-3.2 3.5-2 2.9-5.9 2.5-.2 6.4.9 9 1.9 1.2-.6 3.5 1.1 4.5 1.6 3.5.4 9.1-1.8 11.1 2.4z"><title>Austria</title></path>
	<path id="BE" d="M324.5 289.7c1.9-.9 7.5 1.6 6.2 4.2 1.4.2 2.1 1.4 2.1 2.7-1.2.5-2.8 1.6-2.9 3-1.2-.8-2.2-.6-3 .6-4.6 4.6 5 8.2-4.1 8.7-3.1-4.5-10.8-2.9-8-9.5-3.5 1.3-2.8 3.8-8.2 2.6-.8-.5-.1-1.4.2-2-1.3-1.1.5-2.6-1.9-3.4-1.9-.6-5.2.7-5.1-2.1-4.2-.3-4.1-2.2-6.3-4.9-3.9 2.4-6.2-1.4-7-4.8 2.4-1.3 7.2-3.4 9.8-4.2 0 1.5 1.4 2.4 2.7 1.4 2.1 1 5.2 1.1 7.1-.4.1-2.3 3.3.2 2.5-1.8 1.5-1.3 3 .8 4.4-.9.7 1.7 2.3 1 3.6.5.2 2.2 3.2 3.4 5 2.6 2.1 2 5.6 1.8 3.3 5.3-.8.7-1.3 1.5-.4 2.4z"><title>Belgium</title></path>
	<path id="BG" d="M614.1 397.5c.9 10.1-2.9.8-7.1 8.6.6 7.4.4 5.8-4.1 11.2 2.8 1.1 5 4.5 7.1 6.5.8 1.6.1 1.1-1.2 1-.5.5-2.1.4-2.7.4-1.4 1.5-3.8-1.3-4.9-1.9-1.4 0-4.1.2-5 1.4-1.9 0-4.1.4-4.4 2.6-1.2 0-2.3.3-2.2 1.7-4.9-1.7-1.4 2.7-1.8 5.1-3 1.8-7.6.6-10.9 2.2-1.3-.8-4.9-3.1-6.3-1.7-1.2-.6-3.1-1.8-3.6-3.1-1.2 1.2-6-.7-6 1.3-2.3 0-5.1 1.8-7.5 1.1-2.2-.1-4.1 1.7-6.4 1-.4-1.9 1.1-5.7-.4-6.9.1-3.3-10-7.2-7.4-8.6 2.1-2-1.2-5.2-.3-7.9 1.4-.9 3.4-.3 4-2.3 6.4-4.9-9.7-6.8-6.5-15.8 2.5-.2 1.7-2.6 3.2-3.6 7.5 3.6 1.1 2.2 3.4 6.3 5.1-1.5 11.3.7 16.4 1.1 4.1-1.2 11.9 1.9 16.1 1.4 5.9-1.8 8.3-7 16-7.3 4.3-1.4 9 3.9 13.2 2.4 2 2.9 6 4 9.3 3.8z"><title>Bulgaria</title></path>
	<path id="BA" d="M492.7 380.1c10.3-3.1-3.2 8.5 5 9.9 9.1 7.2-6.3-.2 2.6 8.1.1 2.3-.7 2.3-2.7 1.9-.3 1.1-3.1 1.1-3.9 1.3 1.2 1.8 1.9 2.5-.9 2.4-1.6 1-2.9 2.9-2.4 4.9-4.5-.3-.5 4.4-.6 6.3-3.1 2.6-8.9-5-12.3-4.9 1.2-2.4-3.2-3.9-4.2-5.7-.5-3.8-7.6-5.7-9.5-9.4-5.5-3-6-10.4-11.7-13.2-.4-7.5.5-8.9 6.7-3.8 1.3-2 3.3-4 5.9-2.9 1.2-1.8 2.9-.4 4.2.4 1.4-.1 4 .4 5.3.8 1.2-.8 2.4-.3 3.3.7 3.2-1.9 7.2-.2 10.6 0 1.8 1 2.1 3.7 4.6 3.2z"><title>Bosnia</title></path>
	<path id="BY" d="M579 209.4c2.5 2.2 5-.4 8 3 1.8-1.7 4.7-.9 6.7 0-.2 1.5.6 3.1 1.9 3.8 5.5-5 11.4-.9 16.8 1.7.6 6.3-1.1 2.4 2.4 7.7-.9 1-1.6 2.7-1.3 4 1.3 1 6 1.7 4.1 4.3 2 .4 3.1 3.3 4.7 4.4 2.3 1.1 7.1 2 5.2 5.7 9.2 0 6.2 2.2 12 5.4 1.8 2.7-2 1.6-2.3 3.6-4.6 5.3-10.9-4.1-13.2 2.9 1 1.3 5.6 3.5 4.3 5.8 1.7 1.6.7 5.1 3.1 6.2 3.6 3.5-2.4 1-3.7 1.7-1.2 1.3-2.9 0-4.2.9-3.2 2.6-5.1 6.9-2.2 10.4-1.4 3.5-4.1-1.2-6-1.8-2.2-.4-8.4 1.6-10 .9-3.5-5.7-4.5-.8-7.9-.6-1.5-3.4-7.1-1.2-9.7-2.1-1.8 3-1 .3-3.1-.1-4.4 1.2-4.5-2.8-8.1-2.3-11.4-1.6-26.5-6.7-35.3 2.5-1.4-.8-4.8-1.5-4 1.1-2.1-1.9 0-3.6-.7-5.5 2.4-6.7-15.1-3.9 1.1-11.8 1.8-6.5-5.5-12.9-7-19.1 3 1.1 7.2-1.3 9.8.7 1.3-.5 3.7-1.7 5.1-1.2.5-1.6.7-3.2 2.8-2.4 2.1-1.7 5-3.3 6.2-.1 3.7.3 1.5-2.8-.8-2.8.2-1 .8-2.8 1.5-3.5-.8-2.5.1-6.1 3.3-5.9 3.2-5.2 4.6-.5 5.8-3.6 3.3-2.6-4.8.3-1.9-5.1-.5-1.9 1.1-2.2 2.6-2.4.5-.6 1.4-1.9 2.3-1.8 8.4 2.4 5.4-3.4 11.7-4.6z"><title>Belarus</title></path>
	<path id="CH" d="M368.6 337c3.2 4.2 7.4.2 4 7.6-.9 3.2 4.6 1 5 3.6 4 2.9 4.2-.7 6.6-.4.7 1 .2 3.5 0 4.6 1.7 4.8-4.1-2.1-4.3 2.8 1.8 4 2 4.9-1.8 1.8-5.6 3.2-3.9-2.4-7.7-1.7.5 2.4-.9 5-2.7 6.6-.4.7.2 2.1.5 2.7-1.1.9-1.5.4-2.1-.7-.8-.6-1.6-1.4-.9-2.4-1.5-.1-3.6-1.6-4.6-2.6.4-5.1-2.7-1.9-4.6-.2 1.1 1.2-.2 2.7-1 3.7-1.4 1.4-3.8 1.4-5.5.6-1.2.5-3.7 1.3-5 1.5-1.7-1.1-5.3-3.9-4.1-6.1-.4-3.7-5.1-2.8-7.2-.9 1.4 1.7-1.8 3.2-3.2 2.8-.4-1.5 3.5-2.7 1-4.2.4-3.4 4.9-4.4 4.6-8 2.2-.5 5.3-4.1 6.5-5.8-2.3-1 0-2.6 1.6-2.5 2 2.4 4-.9 5.8-1.6 2.9 1.1 6.7-.6 9.7 0-.9-2.5 2.3-3.6 3.8-1.7 1.3 0 4 1.1 5.6.5z"><title>Switzerland</title></path>
	<path id="CY" d="M697.7 534.1h-.2c.1-.1.2-.1.2 0zm0 0c.1 0 .2 0 .3.1-.1 0-.3.1-.3-.1zm-.4-.3c-.3 0 0-.1 0-.2.1.1.2.3 0 .2zm3.5-.8c.7.2.6 1.2 1.2 1.4-.5.1-.8-.2-1.2-.3-.5-.1-2.4.8-2 .2.3-.1-.2-.3-.4-.4 0-.1 0-.5-.1-.5-.4 0-.4-.4 0-.5.2.4.5 0 .7-.2.4.5 1.5.5 1.8.3zm-4 1.1c-.9.7-.5 1.7-1 2.6-.9-.1-1.4.9-2.4 1-.4-.6-.1 0-.1.2-.6.3-1.4.5-2 .7-1.5-.5-2.6.6-3.5 1.2-.6-.7.6-.1.2-.8-.6-.2-.8.4-1.3.1-.4-.2-.3-.6-.8-.5-.2.2-.4.5-.8.4-.1.4-.2.5-.7.4-1.1-.3-2.4-.8-3.4-1.2-1.1-.6-1-2.1-2.1-2.7.2-1.1-2.6-4.5.4-2.3 1.7.5 1.4-2.7 2.7-1.9.3.5.9.1.8-.4.7.2.7 1.2 1.7 1.2.5.4.9 1.5 1.4.4 1.5.6 1.1-1.1 3.1-.7.7-1 1.5 0 2.3.3 1-1.7 2.4 0 2.2 1.5-.2.4.1.7.5.6 0-.4-.1-.8.3-1 .7 1.8.4-.4 2.5.9z"><title>Cyprus</title></path>
	<path id="CZ" d="M433.4 288.4c4-.1-.1-3.5 5.3-1.5-.1 2.6 4.3 2.8 5.9 3.3 2.2.9 4.3 2.5 6.7 1.3 2.6 1.1 1.3 2.3-.5 3.5 1.9.8 3.9 2.9 5.1 4.6l1 .4c6.7-3.1-.3-4.7 3.1-4.9 1.5.1 4.3 1.7 5.5 2.5 1.9-.8 6.1-.5 2.2 1.4 1.5 1.2 3.6 4 5.5 1.9 1.6 1.2 4.8 1.9 6.7 2.4-.1 2.4 3.7 3.3 3.8 5.6-3.2-.4-5.1 2.7-7.7 3.8.1 2.9-2.6 4-4.4 5.7-1.7 1.3-4.9.7-6.8.4-2.1.5-1.9 6.2-3.5 2.4-3.1-1.7-6.9-.5-10.1-.8-3.9-2.2-9.3-3.3-13.5-3.5.6 3.9-2.7 2.8-2.9 5.9-1-.3-3-.5-3.9.3-3 .2-5.5-1.7-7.5-3.6-2.5-1.9-5.4-3.4-8-5.3-.7-.7-3.1-3.2-4.2-2.6-2.1-1.4-3.8-4.5-5.5-6.2 1-.9 1.4-2.2.6-3.3-1.5-.6-5.5-3.8-4.3-5.4 2.4 3.7 2.4-.2 4.9-1.2 1.3-.4 3.4-.7 4.7-.2.4-1.2 1.7-1.6 2.8-1.6.4-1.2 2.1-1.9 3.3-1.6.6-2.9 13.3-2.5 8.9-5.8 3.6-2.9 4.5 4.6 6.8 2.1z"><title>Czech</title></path>
	<path id="DE" d="M422.4 243.1c-4.2 0-2.9.1-4.8-3.8.7.6 5.6 2.3 4.8 3.8zm-34.7-8.1c-.9.1-2.5-.1-3.2-.7.7-1.7 2.8-.8 3.2.7zm28.3.5c-1.2.9-3.1.5-3.9 2-3.6-.8-3.4-6 .1-6.7.4.9 1.7 1.6 2.6 1.8-.9 1.3-.1 2.2 1.2 2.9zm-46.6-6.6c2.8.7 5 3.4 1.8 5.3 1.2.2 3.7-1 4 .9 2.8-1 6.5 2.6 9.4.5 2.5 5.7-8.7 3.9 5 6.4 1.9-1.8 5.2-3.7 8-3.3 2.4-2.8 6.6-5.6 10.4-3.6 3.1 5.7 9.7 1.3 10.5 8.3 6.6 3 4.1 1.9 7.2 8.5.9 3.2-5.2 5.3-1.3 7.5 7.8 4.4 1.7 3.3 6.9 10.6-.9 2.5-1.8 4.6.4 6.8-.6 1.6 1.1 2.1 2.2 2.5 3.2 2.1-.6 13.6-2.7 8.3-.9-1.2-3.2-2.7-4.5-1.3 1.3 1.3 1.9 1.6-.4 2.1-3.9 2.1-9.2 2.2-11.8 5.3-1.2 0-2.4.4-2.8 1.6-1.7-.6-4.3-.2-5.8.8-1.5 2.1-2 3.2-3.8.6-1.2 1.6 2.9 4.8 4.3 5.4.8 1.1.3 2.4-.6 3.3 1.8 1.7 3.4 4.8 5.5 6.2 3.4 0 6.1 5.6 9.3 5.7 3.8 1.3 5.4 8.5-.3 5.7.1 4.5-4.9 4.4-7.7 6.5-1.8 1.9 2.6 3.4 2 5.4-1.5 2.5 2.6.3 1.1 5-2.6 0-2.5-2.1-4.2-2.9-1.9 1.6-6.3-2.4-6.1.8-5-.6-9.9 3-14.5 3.4-.6-1.7-2.5-2.3-4.1-2.3-4.2-1-1.9 3.7-5.6 4.1.3-2-3.6-3.8-5.5-4.6-1.5 1.2-6.1-2.8-8-3 2.6 2.6-1.4 1.3-2.7 1.8-1.1-.8-3.1-1.7-4.6-1.7-.9.5-1.6 1.7-1.1 2.7-3-.6-6.8 1.1-9.7 0-2.2-1.9-.2-6-.4-8.7 1.7-3.3 2.4-8.8 5.9-11.1.6-2.6-5-2.1-6.5-2.7-1.8-2.2-4.8-.5-7.1-.9-.1-1.8-2.5-1.1-3.5-.6-4.6-7-5.9-1.7-3.4-9.7-11.7-4.3 3.1-8.5-3.8-10.6 1.4-1.6-1.8-2.9-2.6-3.8.9-1.7.4-2.9-1.3-3.6 0-.7 2.2-2 2.7-2.4-1.6-1.4 1.1-3.5.6-5.2-8.4-9.4 3.9-2.7 6.9-7.4-2.9-2.1 3.3-3 2.5-6-1-2-5.6-.5-3.5-3.9 4.1 1.3 3.5-2.8 4.9-5.4l-.1-4.3c-1.7-.7-1.8-2.6-1.2-4.1 1.8-3.1 10.8-3.2 12.4.2-1.4 2.7 2 1.2 1.9-.9.7.5 1.7.9 2.5.7-1.4-3.2.6-5.6 3.9-4.1 2.4-.1 6.6-.6.9-1.4-1.9-1.3.2-5.4-2.6-5.8-1.3.6-1.9.2-1.6-1.2 9.9-.9-6.3-7.9 2.5-7.4 2.7 1.5 7 .5 9.8 1z"><title>Germany</title></path>
	<path id="DK" d="M388 227.9c3.5 1.2 8.3 2.9 1.4 3.9-5.6-.9-7.5-7-1.4-3.9zm13.7-1.1c-1.2-.1-3.2.3-4.2 1.1-1-2.7 2.9-2.4 4.2-1.1zM373 228c-2 .7-3.4-.6-3.5-2.6 1.1.3 3.2 1.1 3.5 2.6zm8 2c-2.6-1.3.3-3.9 1.8-4.6-.1 0-1.8 4.6-1.8 4.6zm50-4c-2.5.1-6.4-1-4.2-4.1 1.2.8 5.8 1.8 4.2 4.1zm-52-8.7c8.6 10.7-9.3 10.8-8.9 1.4l4.8-1.4c1.1.4 3.1 1 4.1 0zm23.2.2c-.8.6-1.2.6-1.7-.3.9-1.2 1.2-.8 1.7.3zm-23.9-2.8c-1.6.7-.7-2.4-.9-3 .9.8 2 1.8.9 3zm22.6 0c1.3 3.1-7.2 3.4-1.7 5.9 1.4 4.3-4.7-.4-3.1 8.5-3.6 2-3.8-3.3-5.1-5.5-6.8-.4-4.4-1-6.6-6.2-4.6-2.5 4.5-1.2 3.7-5 4.2-1.3 1.2 3.5 4.3 3.6.3-1 1.7-3.2.2-4 2.2-1.6 5.4-3 8-1.4-.4 1.1-.3 3 .3 4.1zm-31.6 14.2c-2.7-.3-7.1.4-9.8-1-1.7.1-3.3 0-3.2-2.2-.4-1-1.3-1.5.3-1.7.2-4.2-3.6-4.9-6.6-6.6 1.8-5.1-5.2-19.8 5.5-13.2.3-2.1 2.2-3.8 4.2-4.3l1.6 1.3c-.2-1.3 1.3-5.3-1.3-5-4 1.4-1.4 4.7-7 5.6-5.2-1.4.2-7.2 3.5-6.6 4.6-.9 8.6-.3 11.1-5.4.7-1.4 3.4-1.9 4.8-2 2.1-.8 3.8-3.1 2.2.8 3.7 4.2-2.8 7.9-.9 13.8 2 2.7 9.6-.3 6.9 4.8-3.7 3.1-4-.7-6 1.2l-1.2 5.1c-1.7-.2-4.5-.1-1.8 1.6-8.4 4.4-.9 6.2-5.3 9.5-1.4 2.1 2.4 0 3 4.3z"><title>Denmark</title></path>
	<path id="EE" d="M510 173.2c1.6-.3 10.8 1.6 6.1 2.7-2.3 1.9-5 3.4-8 3.1-1.7.9-1.1 4.3-3.5 4.2-.8-.9.9-2.1 1.3-2.7-1.1-1.8-4.6-1.4-2.5-3.9-2-1.5-1.3-2.4.9-1.3 1.9-.4 3.5-2.3 5.7-2.1zm8.3 1c-.7.5-2.7-.6-3.3-.9 1-1.6 3.3-.9 3.3.9zm-5.4-4c-1.2 1.3-1.8-.8-2.6 1.7-1.4 1.1-2.5-1.4-3.2-2.2-1-.1-3.4-.5-4.2-1.2 1.5-.2 5.2 0 5.7-2 .8 0 1.6.1 1.7 1 1.7 0 3.8.7 2.6 2.7zm53.2 18.8c-2.9-.5-6.5-1.6-9.3 0-4.7-2.2-9.6-5.9-14.8-7.5-.8 1-1.8.4-2.6-.3-7.8 1.8-8.7 6-7.3-4.2-2.1-1.1-2.8.9-4.5 1.2-1.6-.4-5-1.3-5.3-3.4-1.5-.8-2.8-2.3-2.4-4.1-.5-.8-2.2-2.1-.8-3.1-2.8-5.4 5.1-2.5 6.5-5.5 3.4-2.2 9.6-2.1 13.7-2-.2-2.2 2.2-1.6 3.6-1.7 7.8.4 17.8 5 25.1 2.2 3.5 2-1.9 2.8-1.6 6.2-1.3 1.8-5 .2-7 1.4-3 1.4.1 3.3 1.4 4.5 1.4 3.4 5.2 6.1 7.2 9.2 4 4.3-2.4 1.5-1.9 7.1z"><title>Estonia</title></path>
	<path id="ES" d="M274.9 472.6c-.1 1.5-1.5.7-2.4.6-1-4.8 8.5-4.5 2.4-.6zm21.7-13.6c1.2.9 2.6-.4 3.9.4.1 2.3-2.6 6.2-4.7 7.2-4.9-.7-4-6-7.4-2.7-6.4-2 12.1-11.9 8.2-4.9zm14.7-.8c-1.1.3-4.5-2.2-5.8-2.1-.2-3.5 7.3-1.1 5.8 2.1zM234 402.7c1 3.2 6.3.8 4.5 5.8 2.9-.6 8.7 1.4 10.6 3.6 2.1-.7 5.2.1 6.8 1.7 2.9-1.2 9 2.3 9.3-2.4 2.7 1.1 7.7 1.3 9.3 3.9-.2.8-.1 2.3.7 2.5 2.1-1.5 5.3-.7 6.9 1.3 4.5-2.4 4.9 1.6 11.8-1.8 1.5.1 4.1.8 4.3 2.8-1.4.3-2 .5-2 1.9 2.8 2 .3 4.7-1.7 6.2-2.8 1.4-9.8 5-11.6 7.4-4.1 1-18.1 3.5-16.3 7.6 2.7 1.6-1 2.9-2.6 2.9-2.1 3.9-5.8 8-8.5 11.5-4 4.4-3.9 11.3.5 15.4 4.1 1.2 2.9 3.1-.2 4.8-6.4 2-7.8 8.1-10 13.7.9.7 1.7 1.4 0 2-17.2-1.5-10.4 15.9-21.1 11.8-2.2-.1-3.7 2.7-5.9 1.3-3.9-.4-8.2.8-12-.2l-7 .6c-1.6 1.5-4.8 4.4-7.4 3.4-4.2.1-4.8 6.2-6.7 5.5-1.1 4.3-5.5-.2-7.8-.6-1.2-1.5-3-4.3-2.8-6.4-.9-.4-1.9-.8-1.8-2 1.3-3.1-4.2-5.7-6-7.3-1.6-.4-5.1-.2-6.7.2-1.8-4.9-.5-12.2 5.3-13.5.4-1.7 1.4-2.8-1-2.2-1.9-2.2-3.7-5.4-2.1-8.3 1.9-1.4 6.4-6.2 1.6-6.6-.5-1.2-2.1-3.7-1.9-5.1-.8-.7-3.8-3.3-1.4-3.4 1-.1 4.5.3 5.3-.5 1-1.9 3.1-5.3.3-6.7 3.2-4.8 2.5-.8 2.9-8-.5-5.6-2.3-4.3 1.9-8.7 3-2.4 10.5-6.5 2.1-7.2 1.3-5.8-4.2-3.6-7.5-4.8-2.5 4.8-8.9-.4-12.8 2.7-1.2-1-.5-2.2.4-3.2-.9-3.5-6.5-.4-8.2 1.2-3.3.1-.1-4.3 1.3-5.2-3.5.2 1.1-1.9-1.4-3.1.7-5.4-1.8.4-2.7-2.9 2.6-3-.6-2-2.3-4.9.2-3.3 4-6.2 7.3-5.3 3.3-.8 5.2-.8 5.3-4.1 2.3-1.1 6-3.2 8.4-2.3 1.6-.5 3.1 1.1 4.1 2.1 4 .8 8.9-.1 13-.1 6.7-1 14.3 1.8 21.2 2.9 3.8 0 8-1.1 11.6-1.6 2.5.9 6.9 3.4 9.1 1 4.4.7 9.2 3.4 13.6.7z"><title>Spain</title></path>
	<path id="FI" d="M501 147.9c2.6-.3 1.7 1.3 1.4 3-.8-.9-3.2-1.7-1.4-3zm-1.9.5-2.1-.6c.9-1.4 1.5-.2 2.1.6zm-6.5-2.7c-1.4.9-1.7.6-1.8-1l1.8 1zm25.5-62.9c-1 .4-3.1.9-3-.7 1.3-.6 2.5-.8 3 .7zm30.1-54.6c-3.5 1.5-4.2.2-1.3 3.3-5.5 5.6 3.9 9 8.4 9.5 1.9 2.6 8.1 3.5 7.8 6.9-2 2.6-7.5 5.9-6.4 9.5 4.9 4.1 10.2 9.3 13.9 14.5 1.5 2.2-2.3 1.6-3.3 2.1.9.6 1.4 1.2.6 2.2.2.9.4 2.5-.2 3.4 6.6.5-5.7 4.2 6.1 6.4 1.8 2.3-1.3 3.2 1.7 5.5 6.1 1 7.2 6.4 1 8.6 5.3 4.9 15.1 5.9 19.2 12.1-.9 5.8-6.3 9.2-10.2 13-4.7 5.7-11.1 11.5-17.4 15.2-2 1.6-6.2 6.5-9.1 6.2-3.2-2.1-6.7.2-10.1.7-1.4-1.1-3.6 1-5.6-.9 1.2 1.8-2 2.4-3 3-.6-1.6-1.9-.2-2.8.1-.9-.2-2.6.3-3.2 1-1.5 0-6.6 1-7.4 2.4-3.8.1-10.7 0-13.5 2.6-3.5 1.2-.4-1.2-.3-2.6-1.7-.1-3.3-3.1-4.3-2.3.1 1-.8 2.1-1.8 2.3-3.1.6-2.5-2.9-1.6-4.8-2.6-.6-7.7-.9-9-3.4-4.3 3.4-7.1-5.5-4.9-8.2.6-1.8-1.7-5.4.4-6-1-1.8-2.8-4.7-4.7-5.7.7-2.3.8-5.2-2-6-2.7-4.4 1.2-6.3 2.8-9.8-1.7-2.9 4.1-.9 5.6-1.8 1.9-.8 2-1.2.8-2.8 1.1-.5 3.1-1.4 2.6-2.9 7.9-2.8 14.2-8.8 18.5-16 1.9-.9 5.6-1.4 7.6-.9-.2-.9-1.1-2 .4-2-2.9-2.7-.2-5.9-2.9-7.4-3.8-1.1-8-3.3-12-3.6-1.3-3.5-5.4-4.7-6.6-7.9-.3-1.1.7-2.1 1.5-2.6 1.3-5.9-2.1-4-4.1-8.3 1.2-3 1.5-3.2-2.3-3.6.7-1.8-.8-3.9-.8-5.7 1.8-1 .4-1.3-.7-1.9-.6-.5-2.3-2-3.3-1.6-1.9-3.7-9.5-4.2-13-5.1-3.4-1.9-9.7-3.4-12.3-6.1-5.7-1.3-.9-1.6 1.6-.8 1.1-1.6-1.9-1.8 1.4-3.1 3.9-1.1 10.7 4.5 12.9 7.3 7.6.8 9 1.7 15.9-1 16.9 5.1 6.5 1.5 15.6-1.2 1.9-.7 1.2-3.1.8-4.6 1.1-5.3 1.5-5.5 5.6-9 1.8-.5 5 .5 6.8 0 6.6-4.7 13 3.1 20.2 3.2 7 4.5-5.1 5.1.4 8.6z"><title>Finland</title></path>
	<path id="FR" d="M375.7 411.9c-.4 2.5 1.6 7.6 1.3 10.5-2.3 2.8-1.5 7.4-3.3 10.5-.8 2.3-7.7-1.7-4.8-3.8-2.7-.6-1.8-1.4-2-3.5-2.7-.4-.4-1-.6-2.6-1.6-.8-2.4-2-.5-3-2.1-2.8 1.7-5.6 4.4-5.8 1-2 3.2.5 3.7-1.7-.9-3.9 1.6-5.2 1.8-.6zM241.8 364c-.3 3.2-1.4-.6-2.3-1 1-1 1.7.4 2.3 1zm84.4-55.6c1.5 1.4 3.8 1.4 5.5.6.6.5 2 .8 2.7.8.9 1.1 3.5 5.6 5.3 3.6 1.6.2 2 1.8 3.8 1.4 1.4-.5 3.9-.7 5 .8.9.4 5.6.7 6.4 1.4 1 1.2-2.9 4.3-3.4 5.1-.6 1.5-1.2 6.1-2.4 7.3.2 2.7-1.8 6.8.4 8.7-1 .2-1.9 1.2-2.3 2.1-1.8.7-3.1-.4-4.6-.5-1.4 1-2.2 1.4-.5 2.5-1.3 1.7-4.3 5.3-6.5 5.8-.4 5.8-5.4 3.2-4.1 10.2-3.9 2.3.7 2.6 2.2.5-1.6-3.3 6.9-4.3 6.7-.4-1.5 2.2 2 3.5 2.7 5.4-1.3.6-3.1 1.7-2.5 3.3 1.6 1 2.7 3.8 4.4 4.8-.2 2.3-2.1 2.9-3.7 4.1-.8-.2-2-.3-2.7.2.2 3.3 4.8 3.5 5.2 6.2-2.3 1.4-1.9 3.8-1.4 5.9 4.5 4.9 10.1 1.1 9.6 4.7-1 .7-2.5 2.9-1.9 4.1-8.6 2.9-10.5 12.2-20.8 10.4-1.6-1.8-5.5-1.1-6.2-3.8-1.4-.1-2.9.1-3.3-1.6-3.7 1.5-9.8.8-12.7-2.3-5.4 3-15 7.9-11.8 15.6 3.8 4.5-2.3.8-5.3 3-1.9 1.9-6-1.8-8 .7-.9-1.7-4.8-1.5-4.1-3.9-4.2-.3-7.9-2.8-12.8-3.8-.3 4.6-6.4 1.2-9.3 2.4-1.6-1.7-4.7-2.4-6.8-1.7-1.9-2.2-7.7-4.2-10.6-3.6 1.4-3.5-1.5-3.8-4-4.5-.9-1.7.2-1.4 1.5-1.8 2.1-.8 3.1-7.1 3.6-9 .9-2.1.2-10.1 3.5-10.3-.8-1.7-1.4-.8-2.1.3l.7-7.6c.7-5.1 1.3-7.3 5.3-2.4 1.6 6.4 1.5 1.8.4-1.1-.9-2.4-5.3-3.5-5.9-5.9 1.8-.3 1.9-.8 1.3-2.4-.2-2.5.3-7.1-3.5-6.5-3.5-1.6-10.3-6.2-7.6-10.6-4.7-3.7 2.1-3.3-4.1-3.7-2.1-.2-2.7-1.7-.8-3-.9-.8-3.1-.8-4.2-.6.4-1.9-1.1-1.7-2.4-1.4-3.4-1.4-7.6-2.4-11.4-3.6-2.6-.3-5.3 1.5-6.3-2-6.9-2.2-.2-1.2 1.2-3.1-.6-.3-2.9-.8-2.4-2.1 1.4.3 1.6.5 1.7-.9-1.6.2-6.1.6-3.9-2.6 3.3-2.1 8.6-2.6 12.3-2.6 2.4-1.6 5.9-2.6 8.6-1.2 4.7 7.5 6.7-.9 12.1 3.1 1-.8 1-2.4 2.2-.7 2.5-.7 6.4 1.5 3.2-2.7 1.7-10-10.5-13.2 2.5-13.7 4.7 3.8-2.7 4.9 10.2 5.4 3.2 1.3 7 .4 9.6-1.7-2.3-.2-2.1-2-1.1-3.6 8.6-4.6 18.4-2.5 16.7-15.8.7-4.1 7.1-4.3 10.3-4.9 1.4-1.5 1.8 2 1.8 2.9 3.2 4.5 7.2-1.3 8.2 5.2 5.4.4 3.9 3.5 5.7 2.8 6.8.5 4.4 1.3 5.3 5.8 5.4 1.3 4.8-1.3 8.2-2.6-2 5.2 1.4 5.2 5.2 6.9 1.3 2.1 4 3.1 6.2 2.2z"><title>France</title></path>
	<path id="GB" d="M243.6 291c-1.2 1.8-4.8 1.7-5.4-.2 1.6-1.1 4-1.4 5.4.2zm-36.5-39.7c3.2.9-2.4 3.4-3.3 2.2-3-2.9 1.5-5.4 3.3-2.2zm-23.3-11.4c-1.5.1-5.9 1.6-4.9-1.1-2.7-.6-3.4-6.1-6.4-2.1 1.4 1-1.4 2.1-1.9 2.7-1.9.2-4-1.2-5.8-1.4.2-2-4.5-2.3-1.9-4.4 3.7-1.1 2.3-.3 2.1-3.1 1.9.4 4.2-.6 5-2.3.5-1.8 2.3-4.1 4.2-2.6 2.3-3.1 7.7-2.7 11.3-2.5 1.4 1 1.6 3.4 2.9 4.5 2.1 1.3 2.1 2.6-.3 3.4 2.1-.1 4.3.4 4.7 2.8-1.6-.3-3.5 1.6-1.1 1.9-.1 1.5-2.1 1.8-3.2 2-.8 2-2.4 3.2-4.7 2.2zm13.8-20.2c-2.3.1-4.2-1.9-2.3-3.9 2 .2 2.7 2 2.3 3.9zm-11.5-7.1c1.7 3-1.6 7-2.5 2.3-1.6 1.3-1.4.8-1.2-.9.9-.1 2.8-1 3.7-1.4zm1.7 1.7c-1.8-1-.3-2.3.5-3.4 3.7-2.7.5 2.3-.5 3.4zm2.5-7.8c-2.6.1-5.8 2.2-4-2.2-.6-.4-2.5-.7-1.6-1.8 1.5-.8 2.9-.1 3.8 1.2 1.8.1 2.3 1 1.8 2.8zm-16.2-11.4c-2.4.3-1.8-2.4-1.7-3.9 2.3-.7 1.4 2.6 1.7 3.9zm12.7-5.7c-1.3 4.7 3.2 2.5 5.2 4.1l-3.3 2.7c-1.1.4-.7-1.8-.9-2.3-.8.4-2.5.2-3.3 0-.6-2.5-3.7-1.6-4.8-3.5.9-.2 1.7-.8 1.7-1.8 2-.1 5.4-2.7 5.4.8zm-11.8-2.6c3.1 2.1-2.1 2.8-3.6 1.2-.3-.8 3.2-1.1 3.6-1.2zm11.7-9.9c-.6 1.7-3 3.2-2.8 5-2.4.4-5.6 5.4-7.6 3 5.1-2.8-.6-1.1.3-5.3.9-1.3 2.7.5 4.1-.3-2.7-1.7 5.2-3.6 5.6-4.4l.4 2zm34.8-2.2c-.3 5-9.5 5.3-10.7 9.7 4.1.1-1.3 2.2-1.2 4 4.6-1 9.9-1.9 14.5-1.7 4.6.1 16.9-.8 9.3 6.3-.9 3.9-4.3 7.3-6.7 10.3-4.2 2.5-7.4.6-.7 3.5-.7 1.5-2.3 2.1-3.8 1.9-1 .9-3.1 2.2-4.4 2.4l3.6 1.1c8.6-4.1 17.5 5.6 18.5 13.7.7 3.8 3.9 6.6 7.6 7.2 2.4 1.4 5.4 5 7.9 6.3-3.4 2.1 1.6 4.6 1.4 7.2-11.9-3.4 11.7 4.4.1 11 6.2 4 3.6-4.2 15.7.2 6.7 2.1 4.5 11.5-.6 14-.1 2.1-2.5 3-4.3 2.3l-2.4 1.2c1.2.1 2.1 1 1.7 2.3-1.8 1.4-4.8-.3-2.5 2.8 2.8 1.3 11.1-2 8.1 3.5-4.9 2.7-7.9 4.4-13.8 6-5.1-1.7-11.1.8-16-1.3-3.3-.2-7.1 3-10.8 1.8 3 3.2-4.6 1.1-6.2 1.7-16.3-6.8-7.9 12-19.5 3.4-3.8 1-9.5 1.4-11.5 5.4-2.1.3-3.7-1.9-6.1-.2-1.2-3.1 4.7-2.6 6-4.9 2.1-2.9 7.6-5.2 7.6-9.2 6.1-2.1 3.1-5.3 13.8-3.3 2.5.4 4.7-1 5.9-3.2 7.9-5.5-2.1-1.8-4.9.3-2.9.3-5.1-2.3-7.6-3.1-2.1 1.1-3.5-1.2-5.2-2.2-1.7-.4-4.8.9-6.2 1.7-2.4-.4-5.2-4.1-2.1-5.6 4.3-1.6 13.6-3 12.2-9.2.7-1 .2-2.2-.4-3.1 1.4-3.1-4.1-.6-5.4 0-1.8-1.4 1.4-2.1 2.1-2.9 2.6-4.3 8.5-4.2 12.8-5 1.8.6 3.5 2.5 1.9-.8 2-.3 1-3.8 2.9-5-1.4-.2-1.2-1.5-1.1-2.6 1.5-.2 2-2.2 2.2-3.4-1.9-1-4.1.9-5.5-1.4-8.1-7 3.9-9.3-1.1-10.9-4.4.6-5.6 4-10.1 1.9-1.6 1.4-4.3.7-6-.2-.8 4.2-3.9.2-4-2.1 1.5.6 2-1.5 2.5-2.4 1.8-2.4 5.6-6.2 1.1-8.1.1-1.7.4-4.1 2.6-4-1.8-2-4.7-.4-6.6.6.7-2.2-.3-3-1.8-1 .6 2.2-1.1 7-2 9-4.3 3.2-1.2-4.5 0-6-2-3.9 2.5-10.5 4.6-14.1-2.8 2.4-8.2 5.4-9.3-.2 1.5 0 5.1-1.2 2-2 2.2-1 4.9-4.3 2.6-6.4-.6-.1-2-.7-1.8-1.5 1-.7 2.1-2.3 1-3.4.8-3.6 3.6-2.9 6.5-3.4-3.8-2.1-2-5.9 2.1-5.2-1.5-1.9-.5-5.5 2.4-4.5 1.3 2.8 22.7-4.2 19.1.8zm-.6-4c-3.7.4-1.8-3.8 0 0zm1.3-3.4c1.2.5 3.6 0 2.1 2-1.5-1.1-3.8 0-5.3-1.4-.5-2.6 3.7-3.2 3.2-.6zm3.7-2.3c-1.3.8-1.4-1.6-3.1-1.5.2-2.1 2.6 1.4 3.1 1.5zm16.1-19.5c.5.6 1.8 2.1 2.6 2.3-1.1 1.5-1 7.7-3.3 6.7 2-5.6 0-2.5-1.7-4.6 1.8-.8 1.9-3.5-.3-3.6.9-.9 1.6-2.2 2.7-.8zm2.9.4c-.9-.9-2-1.4-.1-1.9l.1 1.9z"><title>United</title></path>
	<path id="GE" d="M827.4 435.6c-2.5 1.1-5.6 1.9-9.6 1.2-2.4.7-7.2 1.7-9.7 1.6-.6-.9-2.1-1.5-3.2-1.4-.9-2.7-5.2-3.6-6.4-5.7-1.8-.8-3.3.2-3.7 2-2.2-.4-6.5-2-8.1.1-7.9-1.2-.4-3.5-2.4-8.4-2.1-2.4-4.2-9.6-6.5-11.9-4.5-.9-7.4-6-12.4-6-1.8-1.7-11-4.4-6-6.9 1.4.3 5.1 1.2 6.3.5 6.5 2.4 14.3 6.7 21.4 4.8 2.1-.3 4.1 1.7 6.2.9 3.7 1.2 6.9 4.5 11 5 5 1.2 1.5 4.3 5.9 4.3 3-1.4 7.7-4.8 10.1-.7.2-4.3 5.8-.1 7.5 1.3 1.4-.2 3.8 0 5 .9-3 8.9 13.8 5.5 9.6 11.1-3.1.4.3 2.5.8 3.9 2.5 1.3 8.5 4.2 3.4 6.8-1.4-.6-4.3-2.6-5.8-1.5-4.6-.7-9-7.7-13.4-1.9z"><title>Georgia</title></path>
	<path id="GR" d="M567.4 525.6c4.3-.1 3.9-2.1 6.2 2.7 6-1.3 7.3-.9 12.9.4 1.6 1.1 4.8-.6 6 .2-.5 5.7 2.4 1 5.5 1.7 2.9-2.2.9 1.5 1.2 2.7-5.6.4-13.7 1.6-19.4 1.5-.6-6.5-16.6-1.6-16.3-7.3.2-1.3-.1-2.3 1.6-1.6.2-2.2 1.2-.9 2.3-.3zm43.5 1-1.6-2.1c1-1.5 2.9 2.2 1.6 2.1zm-54.7-11.4c-1.8.9-2.5-1.9-1.6-3 .4.7 2.9 2.1 1.6 3zm62.7 4.1c-2.7.1-.7-2.3-2-3.8 2.3-4 9.3-6 4.6.7 1 1.5-2 .9-2.6 3.1zm-19-10.3c-.7.5-1.6 1.7-2.4.6.5-.1 2-1.8 2.4-.6zm6.2-2.2c0-1.7 3.7-3.4 5-2.2-1.3 1.2-3.8 1.3-5 2.2zm-22.2-5.4c-.6 1.1-1.1 1.5-2.2.6.2-1.4 1.6-2.4 2.2-.6zm3.5 1.6c-3.1 2.1-2.3-5.3.3-2.9.1.8.2 2.3-.3 2.9zm5.5-8.8c.7-3.6 4.5-.4 0 0zm-21.7-.7c-1.1-.2-1-.7-.6-1.6 1 .4 1.1.7.6 1.6zm31.5-3.7c2.8.4 3.4 1.3.5 2.6-2-1-4.1-2.3-.5-2.6zm-76.7.1c1.1 3.7-2.9 1.2-3.5-.8 1.1-2.1 1.9.8 3.5.8zm53.1.7c-1.6.1-4.9-2-2.9-3.6 1.1 1.6 2.9 1.2 2.9 3.6zm-57.3-9.7c-.4 2.2 3.2 2.6 2.3 4.9-.7-.3-2.4-1-3.1-.6-.5-.9-1-2.5-2.4-1.8.2-2.2 2-1.3 3.2-2.5zm70.8 2.5c-1.4 1.9-4-1.1-1.5-2.1-.5-.6-2.5-2.5-2.2-3.4 3.4-1.8 5.5 3.1 3.7 5.5zm-70.2-6.1c-2.6 1.1-1.6-4.2.2-2.9 0 .5.6 2.8-.2 2.9zm34.6-5.4c1.6 4.5 9.5 2.8 10.9 7.1-.3 2.7 2 6.2 5.1 5.6.9 2.2-.4 3.2-2.4 2-5.7-4.9-.9-5-9.8-6.7-1.2-3.8-6.3-5.3-9.2-7.4 1.6-1.1 4.1-2.6 5.4-.6zm37.9-5.8c-.6 1 1.3 1.9 1.8 2.4 2.1 3.1-2.5 3.2-4.5 2.3-2.3-1.2 2.3-1.8-.1-2.6-.8 2.6-5.6.8-3.6-1.5 2.6.9 4.4-3.2 6.4-.6zm-81.3-1.6c-2.7 1.2-3.9-3.5-5.9-4.6.7-1.8 2.7-1.7 3.7-.3-.6.7-1.6 1.3-.3 1.9.4 1.2 1.1 3 2.5 3zm67.8-8.6c-.4.6-.9 1.9-.8 2.7-1.8-.3-4.6-.3-4.1-3 .8-.1 2.6-.3 3 .7.6-.6 1.2-1.1 1.9-.4zm2.4-6.9c-1.1.7-2.3-.2-3.1-.9 1.2-.8 2.3.2 3.1.9zm-11.9-3c-2.4 1.4-4.1-.7-2.3-2.8 1.6-.2 2.6 1.4 2.3 2.8zm15.9-1.7c-2.1-2.6-7.5-2.6-10.4-3.2-1.9-1.7-4-.2-5.7 1.1-2.6-.7-5.3-2.1-7 1.1-1.5 2.1-5.9-1-6.1 1.7 4.9 4.8-2.9 1.9 6.6 5.5-.9 1.6-3.7-1-5.1-.6-2.9 1.4 1.6 2.8 2.3 3.9 1.5 5-3.3-.1-4.1-1.7-6.2-2-2.4 2.9.6 4.1-2 1.6-5.3-1.6-5.1-4-2-.9-6.6-3-6.9-5.6-1.5.7-2.7 1.5-1.8 3.3-.1 1.1-.9 4.2-.2 5.1 1.4 1.4 4.3 4.5 4.8 6.4 1.8 1.6 8 6 4.6 8.2-2.4-.6.2-2.8-3.2-3.6-4.5 1.4 3.4 5.2-1.9 6.8-6.4-.5 4.3 3.4 6.2 3.7.7 1.4 2.7 2.7 4.3 2.7 1 2.1 3.5 2.5 5.4 3.4 1.3 2.5 1.6 6 2 8.8-1.6 1.3-4.9-4-6.6-4.7-1.8-.4-5.1.8-6.8 2.1 1.6.7 1.6 2.7 2.4 4 1.6-.2 3.2 1.7 4 2.8-1.4 0-3.9 2.3-4.9 1.2-1.4-3.8-8.3-4.7-3.1 1.2 2.5 3.8 3.6 9 4.4 13.1-4.1-3.2-7.6-10.1-8 .1-1.7-.5-1.8-2.5-1.8-4-1.8-2.6-6.5-8.2-5.9-1.6-.7 2.7-4.1-3.4-4.9-4.4-.4-3.4 2.7-3.4-.7-7.2-1.2-1.2-3.7-1.7-4-3.6-.5-.6-2.6-1.2-2-2.3 2.4-.9 2.1-5.4 4.9-3.8 2.1.3 2.7-3.4 5-2.5 2.7 1.9 7.3 2.9 10.2 4.3.9 1 3.7 2.5 2.3 0 9.1-1.6-4.5-3.4-6.6-6.1-1.7 3-5.5-.7-7.9 1.1-1.3 0-4.8 1.5-5.3-.6-.8.2-2.9 1.5-3.6.3-.3-3.5-10.2-11.2-1.1-7.8 2.8-2.1-2.4-3-4-1.9l-2.8-2.2c-.7-1.1-2.5-2.4-3.7-2.8-.6-1.9-2.8-4.8-4.3-6 .9.2 2.9 1.5 3.4.2.1-.8.3-1.9 1.2-2.2-2.3-3.1 1.1-3.2 3.2-4.3-.3-3.9 3.3-5.4 4-8.5-4.4-5.5 7-1.8 9.1-4.5 2-5.3 8-1.5 11.7-3.6-.6-3.3 3.1-2.2 5.2-2.2 1.1-1.8 4.2-1 6-1 1.2-.9 5-.7 5.1-2.2 6.1.1 4.5-1 9.4 2.7 1.4-1.3 5 .9 6.3 1.7 1.6-.5 4.9-1.2 6.6-1.3 4 1.3 5.6-2.6 2.9-5.4 4.5-3.2 11.2 4.2 4.2 6.8.9 2.9.2 6.7-2.8 8z"><title>Greece</title></path>
	<path id="HR" d="m465.7 409 2.3.4c-.9 1.3-1.5.6-2.3-.4zm13 1.6c2.1.1 10.1 5.1 11.3 7.2-3.2-3.3-26.7-12.2-11.3-7.2zm-6.3-3.6c-2-.2-8.2 1.2-8.6-1.6 1.5.4 6.6 1.7 8.6 1.6zm-5.3-2.2c-1.2.1-5.5.2-4.3-1.8.6.5 6.4-.4 4.3 1.8zm-21.2-16.5c-.9.8-4.4-2.9-3.9-4.2.9.8 3.3 3.1 3.9 4.2zm-4.9-6.5-1.9-.2c.7-1.6 1.1-.8 1.9.2zm-4.3 1.5c-2.7-.4-1.9-5.7-3-7.5 1.9-1 2.6 5.8 3 7.5zm3.7-4.9c-.9.4-1.9.2-2.5-.7-.8.1-1.8-.5-2.3-1.2 2.5-3.2 2.7 0 4.8 1.9zm49.6-14.7c-1.7 1.8 1.4 3.8 1.1 5.8 1.6.1 1.2 1.3.9 2.4 1.2 1.6 4.5 1.3 5.1 3.5-7.5-1 0 5.5-6.5 4.5-1-3.4-4.4-3.1-7.2-3.9-.9.2-2.7.2-3.6-.1-1.4.9-2.7 1.1-3.8-.3-2.9 1-7.2-.1-9.7-1.8-.9 1.4-3.3 1.1-4.7.9-1.2 1.2-2.6 4.4-4.5 2.2-4.6-5.6-5.5.8-4.9 4.8 2.9 1.7 6.2 5 6.6 8.5 3.4 3.5 7.9 7.8 11.8 10.8 2.8.4 2.4 3.5 4.3 4.9 8.5 7.8-4 0-6.5-3-3.1-.7-6.7-3-9.8-1.7-1.7.2-2.2-1-2.5-2.4-2.8-1.7-7.9-5.5-10.1-7.9-2-1.8 1.3-1.8 2.3-2.5-2-1-5.3-3.9-6.5-5.8.9-4.7-2.8-8.5-7-9.8-2.5.9-2.6 8.2-6 7.8-2.3-2.4-4.1-6.8-4.9-10 .4-.8 3.5 1 4.5.9 1.9-2.5 7 1.2 7.9-3.4 1.4 1 3.6 3.7 5.4 2.3 2.3 1 6.1 1.8 4-1.8 1.1-.6.2-1.2-.3-1.8 1.3-1 4.4-.9 4.6-2.7-1.3-5.1-1.4-4.3 3.7-6.2.3-1.1 1.8-1.1 2.7-1-.1-.8 0-2.1.9-2.5 6 .6 9.5 6.1 14.2 9 3.6 1.3 7.7 3.6 12 3 2.3-.5 3.9-3 6.5-2.7z"><title>Croatia</title></path>
	<path id="HU" d="M525.5 325.7c2.3-.5 2.6 3.2 5.1 3.1 1.2 1.9 4.5.9 4.8 3.9-1.8 3.3-7.2 2.3-8.7 5.8-1.1.5-1.3 1.6-1.1 2.7-1.1.7-1.9 2.7-2.1 3.9-.7.6-1.7 1.7-1.4 2.7-.6.8-2 3-1.4 4-2.1.6-3.1 4.4-3.6 6.2-1.8 1.4-4.9.1-6.4 2.6-1-.9-3.6.1-4.6.4-2.5-1-6.2-.9-8.8-.7-1.7 3.1-5.2 1.6-7.4 3.4-6.1 1.6-6.9 4.3-14.7 1.6-1-1.7-3.7-1.6-5.1-2.6-3.1-2.8-6.4-6.4-10.4-7.7-2.3-1.6-2.3-6.5-5.7-5.6.9-1.2 2.8-2.2 4.3-2.2.5-1.1 0-2.6-.8-3.4.9-1.8-.5-2.4 2.3-3.4 1.5-2.1-.9-2.9-2.6-3.2 1.3-2.4 5.3.3 7.7-.8-2.4-6.7 3.8-4.3 6.8-1.6 1 .9 5.1.8 6.3.8 12.3-.2 4.1-.8 8.9-4.4 3 0 6.5-.6 8.4-2.7 2.5 2.1 6.2.3 8.5-1.1 1.2-6.8 8.6-2.1 13.2-3.9 3.4 2.6 4 4 8.5 2.2z"><title>Hungary</title></path>
	<path id="IE" d="M183.8 239.9c1.8 2.8-3.4-1.3 0 6.7 1.2 1.9.2 6.1 1.5 8.2.7 2.4-1.4 4.3-2.1 6.4.8 3.2-5.2 4.3-1.7 6.3-4.5 1.2-9.6 1.1-14.3 2.2-1.8 2.2-5 3.2-7.5 4.3-.6-.5-1.9-1.5-2.7-1 1.9 4.8-14.5 5.8-17.7 6 4.4-4.2 2.5-3.1-2-2-1.9-.7 2.4-2 2.6-2.5-1.7-.2-6.2.9-6.7-1.3 1-1.7 5.4-2.5 5.2-4.1-.4-.5-6.9 1.3-4.6-1 1.8-2.1 4.5.2 6.1-1.3-1.4-5.1 9.5-4.1 12.9-5.8-4.3-2.7-2.6 2.3-11.3.4 5.7-2.9 2.1-6.7 9.1-7.7-.9-1.6-4-1.2-5.5-1.1-.7-1.3-2.7-1.4-4-1.2 2-2.8-4.7.1-2.6-2.4-1.7-2.5 3.5-.1 2-3.7 1.1-1 4.3-.5 4-2.3-6.9-.2-1.9.7-4-2.9-.1-.8-.6-2.2-1.3-2.7 2.4-.2 6.2-1 8.7-.6 1.2 1.2 2.4 1.4 3.6.1l4.8.9c-.3-3.7 4.7-3 5.6-6.1-2.5.9-11-.4-4.5-2.1 2.8-1.9 1.6-6.1 6.4-6.2 2.3.5 4.3-2 5.2 1.1-.7.7-1.2 1.1-.4 1.9 1.5-.4 1-1.8.7-2.9 1.5-2.4 4.5-2.4 6.6-.7-5.8 2.1-5.5 8.5-10.9 7.7.2 2.9 1.5 2-2.1 3.1-2.6 2.1 2.1 2.3 1.9 4.4 2.8.7 5.9 2.5 8.2-.4-1.3-1 .9-1.9 1.4-2.5 2 .2 2.5 3.6 4.5 3.7-.9 2.7 3.5 1.1 4.9 1.1z"><title>Ireland</title></path>
	<path id="IS" d="M94.8 65.8c2.1 1.1 6-3.1 6.7-.7-1.6 1.6-3.7 2.5-.3 3.3 5.2.1-1 3.5 1 3.9 1.8-.4 4.3-.9 4.5 1.8 1.7-.4 4.2-.2 5.3 1.3 2.7-1 1.5 2.3-.5 2.4.5 1.1 3.8 3.8 1.1 4.7-2.9.2-2.9 5.8-8.1 3.7-2 6.3-6.7 5.8-12.6 6.8-7.7 2.6-15.3 7.1-23.7 7.1-7.9 5.5-13.4 5.8-23.3 3-5.2.3-10.1-3.8-14.8-5.6-1.8 1.1-17.1 3.6-15.7-1.2 1-1.2 1.6-.4 2.4.4l5-1.1c1.6-.9 4.1-3.2 5.2-4.6l-3.5 1.2c1-3.1-5.1-3.5-2-5.5-4-2-11-1.9-15.3-.6-1.3.3-3.4-.1-2.9-2 2.5-.5 6.4-.1 8.8-1.4 1.1 1.3 4.1-1.2 5.4-.4 2.6-.5 7.4.6 9.5-1.1 1.4-2-4 .5-6.1-.7-1.8-1.7 4.6-2.7 5.7-3.3-.2-1.8-2.8-1.1-4-1.1-1.9-1.9-6-1.2-8.4-.8-2 .3-6.6 1.1-8.5 1.8-1.4-1.4-7.6-.4-4.1-2.7 8.6 1.6-1.1-4.9 7.8-1.1-.3-1.9-1.4-3.3 1.5-2.7-4-2.5-1.2-1.8.7-3.9 4.8-.8 3.8 2.9 7 2.5 1.9-2.2 1.8 1.6 3.7 1 2-3.7-3.7-1.8-3.5-4.7l3.7-.1c-1.5-1.7-4.3-.5-6.1-1.3 1.4-1 4.3-1.4 6-1.2 2.9.8 6.3 3 8.8 4.8 2.1.4 1.9 1.6 2.9 2.9-3.2 3.7-.9 3.1-2.2 5.7 1.3.1 2.5 1.1 2.9 2.3 1.5-3.4 4.1-6.2 7.4-3.8 2.4-2.8 1.9-11.2 6.9-4.9 6 5.8 2.6-2.6 7.5-2.3 3.9-2.5 6.2.7 9.1 2.9.3.7.5 2.4 1.6 1.5.2-1.2-1-3.3-1.6-4.3.9-2.4 6.1.1 7.4 1.6 2.5-.2 4.6-4.5 7.2-2.3 1.7.2 4.7-.1 5.4-1.9-.2-.5-1.4-2.6-.3-2.7 5.7-2 6.2.6 9.4 3.4z"><title>Iceland</title></path>
	<path id="IT" d="M457.1 483.4c-1.8 4.1-6.4 9.1-5.2 13.9.2.5 2.6 1.4.9 1.9.6.6 2 2.1 1.7 3.1-1.5 1.1-2.6 3.2-2.1 5.1-3.6-.6-8.3-.3-9.9-4.5-2.8-2.7-7.5-1.5-10.3-4.4-2.9-1.3-6-3.6-8.8-4.9-4.6.9-7.9-3.6-5.2-7.6 2.6-1.8 2.2-2.4 4.6.3 4.3-2.1 2.6-3.6 7.5-1.1 2 1.9 4.9 2.2 7.3 1 2.7.6 6.6.4 8.7-1.7.9-.5 3.9-.1 4.9 0 .5-.3 2.2-1.6 2.8-1 1.1-.6 2.4-1.6 3.1-.1zm-78.3-41.5c1.9 2.5 3.4 7 .6 9.5.9 3.5 1.4 15.1-1.3 17.6-1.6-1.2-4.1-.7-5.6-1.5l-.3 3c-2.5 4.5-6.5.9-7.9-2.5-.6-2.4.2-5.8.2-8.1 1.4.2 1.1-.9 1.1-1.8-1.2-.6-2.2-1.7-1.8-3.1 3-4.8-4.5-8.2-3.1-13 6.9 3.2 11.1-7.1 13.5-5.1 1.8.2 3 2 4.3 2.8-.6 1-.8 1.7.3 2.2zm8.3-30.8c1.2 2.1-2.5 2.3-3.3.8.6-.1 3.3.2 3.3-.8zm37.9-56.5c.4.9-3 2.8-3.5 3.2.7 3 4.8.6 1.4 4.2 0 1 .8 1.1 1.6 1.2-1.3 2.5 1.7 2.8 3 4.4.4 1.4-.1 1.3-1.3 1.4 1.7-.5-1.1-2.2-1.3-2.8-1.3 1.2-3.8.5-5.2 0-2.5 2.2-6.8 5.2-10.3 4.3-2.9 1.7-.3 5 .9 7 1.6.7 1.8 1.5 1 3-1.3 1.5-2.5-1-2.5 1.9 0 13.5 17.4 12.5 20.9 23.8 2 9.2 10.3 15.8 18.5 19.4 3.3 1.3 11.4-2.1 13 1.8-9.9 6.9 7.7 8.9 12.5 11.7 6 5.4 22.6 8.8 17.2 19.4-5.4-1.1-4.9-9.1-11.6-7.7-1.3-.6-3.3-1.2-3.6-2.7-5.1-1.8-6.5 6.4-8 9.8-.3 6 9.8 3.7 8.3 11.3 3.1 4.9-4.3 2.1-6.1 5.2-1.4 1.5.3 4.5-.5 6.2-2.6 1.4-5 4.5-5.9 7.3-1.6-.4-4.8.8-5.4-1.5-1.1-4 4.6-4.6 2.5-9 1.3-2.8 4.9-1.1 3.9-5.2-3.9-4.5-4.1-13.4-9.1-17.3-2.4.1-7.9-1.4-8.6-4 1.5-1.8-1-4.6-2.5-5.6-.9.1-2.9.9-3.8.5.5-3.4-4.1-2.1-5.5-3.7-2.5-5.5-5.1-5.7-10.5-6.5-1.8 1.5-3.9-.8-5.2-1.9-5.3-1.1-9-8.3-13.8-10.4-1.4-3-4.9-5.1-8.1-5.8-.2-2-7-8.3-8.9-8 .5-2.8-.9-6.4-2.8-8.4-.5-2.3-.9-7.2-3.8-7.9-7.3-1.7-16.1-11.2-22-1.8-1.7 3.7-6 5.4-9.8 5.7-.9-2.2 2.9-3.7 1.6-6.1-4.5 1.8-12.9-2.9-8.7-7.9 2.5-1.6-1.6-3.4-2.9-3.8-.7-1.8-2.6-4.4 1.2-3.3 5.9-3.2 2.9-4.1.2-8.3-2.4-1.2.1-3.3 1.6-3.9 1.7 1.4 4.6-.2 6.4-.8 2.8 1.8 8.2-.9 6.5-4.3 6-5.9 2.7-.3 7 2.2 1.2.6 2.7.1 1.8 1.8 1.4.7 1.8 3.5 3.4 1.9-2-2.5 1.5-4.3 2.2-6.4.2-1.5-.5-3.6 2-3 .6 4.1 3.9 2.2 6.4 1.9 3 4.3 2.5.3 1.1-1.9.5-3.5 2.6-1 4.8-1-1.9-8.7 3-2.6 7.1-3.8 1-3.9 6-3.1 9.1-2.9 1.8.3 5.8-3.7 4.7.8 3.7 6.3 13.4 4.7 19.4 6.3z"><title>Italy</title></path>
	<path id="LI" d="M374 346.4c-2 .4-1.2-2.2-.8-3.3.2.6 1.5 2.6.8 3.3z"><title>Liechtenstein</title></path>
	<path id="LT" d="M562.4 216.4c.2 1.1-.4 3.8-.7 4.9 2.9 1.2 4.6-.4 2.2 3.1-3.3-.6-3.6.3-5.4 2.5-3.2-.1-4.1 3.3-3.3 5.9-3.7 4.6 1.3 2.7 1.3 6.1-1.8.7-2.9-.8-3.7-2.1-2 .8-4.4 2.7-6.5 2.2-.4 1.4-.6 3.3-2.6 2.5-2.6 1.8-5.7 0-8.6.7-7.3 1.6-2.1-4.5-13.2-6.9-1.2 1.6-2.2-2.5-1.9-3.5.5-1.4 1.5-3.5-.3-4.4-2-1.8-5.2-2.3-8-2-3.3-.2-7-3.4-10.1-3-1.1-8.1-8.7-11.2 2.6-15.5 7.2-2.6 15.3-.3 22.4-.3 3.7 0 9.2 2.5 12.3-.7 3.9-.7 3.7 4 10.8 3.7 4.2 1.4 8.3 6.2 12.7 6.8z"><title>Lithuania</title></path>
	<path id="LU" d="M329.9 299.6c-.8 4.1 4.8 3.5 4.6 6.3-1 .4-1.3 3-1.5 3.9-.8-.9-2.4-.5-3.3-.1-1.9.1-4.5-1-2.4-2.9-3.5-1.9-1-9.3 2.6-7.2z"><title>Luxembourg</title></path>
	<path id="LV" d="M566.1 189.1c.8.1 2.4.2 2.4 1.4 1.4.7 4 1.9 3.9 3.9-.8.9-1.1 3.5-1.1 4.7.7-.2 2.3-.4 2.8.3.9 3.4 6.3 5.9 4.9 10-1.9-.1-4 2.2-5.2 3.4 0 3.7-5.4.3-7.6 1.5-.6 1.3-2.5 2-3.8 2.1-4.1-.4-8.1-4.9-11.8-6.4-2.8-1-8.1-.8-9.4-4.3-3.8.8-8.2 3-12.3 1-6.7-.5-13.2-.6-20-1.2-3.6.8-8.1 3-11.1 5-.7-3.6-3.3-10.4.6-12.7 1.7-3 1.2-9.9 6.3-9.7 7.1-3.3 7.1-.2 12.9 3 2.1 2.2 4.4 5.7 7.9 6.2 2.5-.3 7.7-2.2 7.7-5.2-3.2-9.8-2.9-7.7 6.2-10.8 4.3 1.2 10.8 2.8 14.6 6.7 1.7 1.4 5 .7 6.8-.1 1.2.4 4.2 1.2 5.3 1.2z"><title>Latvia</title></path>
	<path id="MD" d="M606 371.1c-.3-.9-3.1-2.3-1.1-3-.5-1.7-1.7-5.8-1.5-7.6 1.8-4.5 0-9-2.4-12.9-8-3.6-13.2-19.8-20.5-19.6 1.3-3.4 6.5-.3 8.4-2.7 3.2-.9 6.7.2 9.5 2.7 1.1.2 3 0 3.1 1.5 3.5-.1 6.2.9 8.4 3.5 1.1-1 2-.3 2.8.7 1 7.6-1.6 5.2 5.8 9.8-.7 3.4 2 5.7 5 6.4 1.5 2.2.7 5.4 4.1 6.2-.2 1-2.8.9-3.5 1.1-.7-1.2-1.6-1.4-2.8-.7-3.9-1.8-11.5-3.1-7.1 3.4.2 1.6-1.5 3-2.7 3.7.6 1.2-1.9 3.4-2.5 4.2 1.6 2.8-1.6 2.1-3 3.3z"><title>Moldova</title></path>
	<path id="MK" d="M538.3 419.6c5.9 5.7 10.2 5.6 8.8 15.2l-2 .3c.3 5-6.5 1.8-9.4 2.9-1.6.8-2.8 3.7-4.9 4.1-.8-.2-2.6-.9-3.2 0-3.2.3-7.7.4-8.8-3-3.4-2.5-2.7-6.8-2.8-10.1.4-1.4.1-3.3 2.2-2.3.8-3.2 1.3-4.6 5.1-5 1.4 1.6 2.1.7 3.1-.7 4-.2 8.4-2.7 11.9-1.4z"><title>Macedonia</title></path>
	<path id="ME" d="M497 400.8c1.4 2.6 5.3 5 7.9 6.5 3.8 1.1 11.8 4.1 3.7 5.9 2.4 2.5-.7 3.4-2.7 4-.3-.8-.7-2.5-1.9-2.4-.4.4-3.2 5.9-4 5.6-5.8-.9.4 1.7 1.1 3.1.7 7-3.7-1.4-6.1-2.8-.5-.6-4.4-1.7-3.4-3-1.4.5-2.3-.7-2.8-1.8 3.1-1.6-2-4.9 0-7.1 3.2.2.2-5.6 6.4-5.3-2.2-2.6-.6-2.4 1.8-2.7z"><title>Montenegro</title></path>
	<path id="NL" d="M306.7 280.4c-1 3-5.4 2.7-7.7 1.6-1.2 1.1-2.7.1-2.7-1.4 3.4-.8 7.3.6 10.4-.2zm-3.4-5.3 1.5 1.4c-1.5.6-4.5-.7-1.5-1.4zm18.1-8.5c-11.3-.1 7.6-7.7 2.8-1.9.1 0-2.8 1.8-2.8 1.9zm-7.6-11.5c-3.5 3.5.5-5.1 0 0zm-7.1 25.3c-1.2-.6-3.5-.9-4.8-.3-8.5-2.1-1.4-3.7 3-2.1 2.7-1.1-.8-2.9-1.7-4 1.1-2.5 4.6-5.2 6.2-7.5 1.4-2.3 1.5-7.2 3.1-9.5 5.2 1.6 7.9-5.9 12.8-6.5 5.9-1.3 19.2-1.8 14.9 7.4-.6 6.5-3.7 1.6-4.8 5.3 1.7 2.3 5.5.1 3.5 4.9-6.4 2.9 2.4 3.8-7.1 5.7-1.2-.6-3-.9-4.1-.1-1.7 3 5 4.7 1.1 9.2 1.5 1.3-.7 2-1.5 2.8-1.3 1 .9 1.5 1.4 2-.4.8-.2 3.1-1.8 2.3-4.9.2-1.6-2.9-1-5.6-1.2-.4-3.4-1.5-4.3-2.4-1.8.8-4.8-.4-5-2.6-1.2.5-2.9 1.2-3.6-.5-.9.9-2 1.1-3 .2-2.1.6-.5 2-3.3 1.3zm18.1-15.6c2.7-2.8-1.4-2.5-2.2-3.9.8-2.4-.1-2.8-2.4-2.9.2-3.7-2.2-2.1-4.2-.7.2 1.4 2.5 2.4 2.2 3.8-3 .1-1.7 2.8-2.2 4.9 2.9 1.1 6.8 1.6 8.8-1.2z"><title>Netherlands</title></path>
	<path id="NO" d="M312.5 148.8c.5 1.9-.8 2.3-1.6.5-.5-2.7.7-3.1 1.6-.5zm-1.8-11.1c-1.2 0-2.2.3-1.5-1.3 1.2-.8 1.2.5 1.5 1.3zm32.5-31.9c-.9 0-2.8-.1-3.3-1 1.3-.4 4.4-1.8 3.3 1zm3.6-4.6c-1.1-1.5 3-1.9 3.3-.5.1 0-3.3.5-3.3.5zm28.1-16.6c-.8-.2-4.9 1.2-4.5-.8 1.6-.9 3.6-1.4 4.5.8zm6.8-10.6-2 .3c-.4-1.4 2.4-2 2-.3zm4-5.6c-.4-1.1.7-2.9 1.9-1.9.1 1.2-.7 1.8-1.9 1.9zm3.1-24.9c-2.9 2.1-.5-2.2.7-2.6.6 1 .3 1.9-.7 2.6zm8.5-5.2c6.2.2-4.3 3.1-6.1 3.6-.9-1.4.4-2.5 1.8-2.2.5-1.5 3.2-1.4 4.3-1.4zm12.4-9c7.2 5.8-5.6 4.6-8 3 .9-1.4 2.8-1.5 4.2-1 .2-1.5.8-1.9 2.2-1.4.3-1.5.5-1.7 1.6-.6zm6.3 5c.6-.7 1.9-1.4 2.8-1.5.1-3.4 3.6-3.1 4.9-.5.4 1.4-2.5 1.9-3.3 2.3-.9.8-2.7 2.6-4.1 1.8-1.7 2.5-4.5-.4-5.7 1.3-1.7.3-4 .2-5.5 1.5-8.7.6 1.1-3.9 4.4-3.3 2.4-1.1 3.1-3.7 3.9-5.7-1.3-.2-1.4-1.2-1.1-2.3 1-.6 3-2.2 3.7-3.1 3.7-1 1.8 2.5-.3 3.4 1.7 1.6 2.1 4.3.3 6.1zm15.5-13.7c1.8 1.4 5.2-.2 6.2 2.7-1.2.5-1.2 1.5-.8 2.6-1.8.6-4.9-.3-6.2.9-.8 1.4-2.3 1.4-3.6.8.3-3.2-.9-5.2 3.5-4.1-.3-1.2-.5-2.5.9-2.9zm124-2.6c-1.7.5-2 .4-1.6-1.4.1 0 1.6 1.3 1.6 1.4zm-92.4-3.9-1.3.4c-6.1-.3 2.5-4.7 1.3-.4zm-15.1.4c1.1 1.3 2.7-.5 3.6 1.2-1.5.7-2.3 2.6-4.2 2.1-2.4 2.5-5.8 4.4-9.5 3.3.8-2.6 3-2.6 5.1-3.5-1.1-.9 1.8-2.3 2.2-2.8.7-2.6 2.4-3.5 2.8-.3zm4.8-2c1.1-.2 2.2 1 2.7 1.8-1.4.7-6.3-2.3-2.7-1.8zm37.3-4.4c1.6 1.4-2.2 2.5-2.8 3.2-2.4.5-5.6-1.8-1.7-2.8 1.5.7 3.6-2.4 4.5-.4zm3.9-.3c-1.7.8-4 .1-3.7-2 .8-.4 5 .6 3.7 2zm-6.4-3.2c-2.8 4.3-9.9 5-13.9 2.1 3 .3 6.5-1.5 9.5-.7 1-.9 3.1-1.7 4.4-1.4zm60.6 23.6c-5.9-3.3 9.9-5.8-4-9.4-4.6-.1-8.7-5-13.1-4-3.1 2.3-6.9 1.3-10.3 1.6-4.2 3.3-6.5 6.6-4.9 12.2-1.2 1.8-3.9 1.3-5.2 3-.5 1.2-.5 2-1.8 2.3-3.5-.9-8-2.3-11.6-2.8-1.2 1.8-4.8 2.1-6.7 2.2-11.2.2-14.6-12-22.5-7.3 1.4 2 .6 2.1-1.4 1.6-1.5-.3-6 .9-7.7.6 3.7 1.3 3.2 5-.3 6.4 4 .6 2.4 2.1-.6 2.4-5.2-.6-12.7-3.1-17.7-2.2 1.8 7.5-1.4 8.2-7.6 5.7-5.1 2.2-5 3.3-7.8 7.4-9.8 2.3 8.1 2.8-4.5 10.6-8.1 5.9.3 5.3-6.6 7.8-1.4.3-4.7.8-6.2.9 2.3 5 1 12.1-2.6 16.3-2.9 3.8-6.9 5 .3 6.6 1.1 2.2 1.7 4.6-.5 6.3-4-.6-10.1-1.6-13.7 1-.9 1.7-5.7 4.3-4.2 6.3-2.8 2.2-1 4.7.7 6.9-2.4 2.3.4 7.6 1.9 10.1-1.9 10.7.3 7.4 7.5 13.2-1.5 9.7-10.6-1.4-2 12.9-.5 4-1.6 8.1-6.5 8.4-.3 1.1-1.3 3.2-2.4 3.9 1.3 2.6 3 10.1-1.6 9.9-.4-3.2-4.9-3.6-7.4-4-1.4-1.4-2.9-4-2.7-6-.8.4-3.5 1-1.9 2.3.6 3.2-2.3 6.2-4.9 6.8-1.5.7-1.6-1.2-3-.6-.3 1.2-3.3 1.9-4.2 2.3 2.3.9-2.8 3.2-4 4.1-5.4 6.2-13.4 8.2-21.2 8-1.5-.7-1.5-3.6-3.1-.7-2.1-.2-1.3-1.3-.9-2.8-3.9.5-7.5-2.5-10.9-3.8-2.2-1.4-2.4-4.3-1.9-6.6 1.3-1.2 4.6 1.1 6.1 1.6.5-1.3-1.8-2.2-2.5-2.8.6-.9.9-2.4.6-3.4.6-.8 3.3-1.8 2.2-2.8-3.5 1.3-13.5 9.5-10.8.5 2-6.4 5-1.1 11.1-5.4-3.4.6-7.8.8-2.5-2.9 1.3-1.3 1.8-3.8 3.7-4.6 2-1.3 3.7.6 4.9-2.1-7.9.2-11 7.9-16.8 11.6-3.6 1.1.5-4.1-.6-5.7 1.6.1 3.8.3 5-1-3.3.8-7.6-2.8-4.8-5.9-2.2-1.4-3-4.2-2.8-6.7 2.7-.5 7.6-.2 10.6-1.2 2.1.5 4.9.9 6.8-.2 1.3-.4 3.1.4 4.1 1.1 0-.5 5.7-1.6 6.1-1.7l-3-1.5c.9 2.9-5.1 1.3-6.7 1.1-.9-.8-1.6-.5-1.8.7-3.3.5-8.1-.9-11.3.8-3.6.5-8.1-5.5-2.3-5.1-12-11.2 7.4-3.5 12.9-5-2.2-1-8.3-1.1-10.9-1.9-2.2.4-5.1-.2-3.7-3.1 4.3.1 2.4-1.5 6.1-3.1 1.9-1.1 3.5.8 5.3.4 6.5-1 2.8-1.6-.8-.8 1.3-5 10.7-3.1 14.6-1.9-.6-2.5 4.4-2.6 5.7-3.2-2.3 0-14.2 2.1-13.6-.3 1.1-1.9 4.3-3 6.4-3.2 4.4-3.4 9 .5 13.2 2-10.7-7.7-.8-3.5-.7-7.7-2.5-.1-3.1-1.5-.3-2.4 8.5-2.8 3.7 4.7 8 .4 2.7-1.2 6.1-.5 7.2 2.4 2.4-1.5 5.7-.5 8.3-.9-3.3-3.4 4.4-3.2 6.1-4.8-2.4-2.3-2.4-1 .7-2.8-1.7-1.2-4.1.3-5.7 1.2 4 2.4-7.8 5.8-10.1 5.6-.5-1.5-2.4-3-4-2.6.8-2.2 3.5-3.1 4.3-5.3 4.9-3.2 9.2-8 15.2-9.2 1.4-2.3-1.9.1-2.4-.1-.6-3.5 6.5-4.7 8.6-5.9 1.2 2.2 6.2 1 5.7-1.2-.9.4-3.4 1.9-4 .4-6.2-.8 2.3-8.1 4.1-9.8 3.4.7.9-1.5-.6-2 3.3-1 8.6-.6 11.6-2 1.7-2.2-7.2.8-8.3.2-1.3-2.5-.6-6.5 2.7-6.6 2.1-.8 1.4-3.2 4.1-3.4 3.2-4.1 10.7-2.7 15.4-3.2-.5-2.1-8.9.4-10.1-1.3 5.7-6.5 5.4-1.9 8.9-3.3-.9-.8-2.1-1.7-.9-3-1.9.8-4.9 2.6-5.3-.6 1.1-1.2 2.9-2.5 4.6-2 .1-3.1 5-2.4 7-3.6 1.3.7 1 3.3 3 3 2.1-.9-1.1-2.2-1.4-3.7 2.6-3.8 7.9 1.1 10.1-2.4-1-.3-10.1.8-5.9-2.2 2.6-1.2 6.4-.5 8-3.4-.2-2.9 3.5-3.4 5.6-3.7-.4-1-.8-2.8.2-3.6 1.1-1.9 6 3.9 4.4 0-.1-2 2.3-.7 3.4-1.7.1-3.1 7.6-4.8 6.9-.7 1.2 3.3 1.2-4.4 5.5-4.4 1.9 1.8.4 6.3-1.4 7.8 3-.2 5.5-3.7 3.9-6.5.8-1.6 4.6-.7 6-.5.2-1.2 1.2-1.8 2.4-1.6 1.7.6 8.2 4.5 4.6.1-1.2-1.2-3.9-1.3-5.3-2.3.7-1.1 2.5-1 3.6-.7 1.4-.6 3.9-1.6 5.3-.4.3-1.1 2.4-1.4 3.3-1.5 3.2.1 4 4.1 6.8 5-.2-.9.2-2.5.5-3.3 2.5-2.8 6.9-3 8.7-6.5-3.7-1.1 1-2.2 1.7-3.3.9-.7 5.6 1.9 6.5 2 1-1.3 3.7-.4 4.9-.1-.2.6-3.4 3.4-3.9 3.9-.6.4-.6 2.3-.6 3-1.2.9-1.2 1.7-.4 2.8 1.4-.2 3.8-1.2 3.5-3 2.5-1.9 5.9-5.8 8.5-7.5 3.7-1.5 1.8 4.7 2.4 6.6 4-.5 3.7-3.3 5.9-5.1-.7-.6-.8-1.8-.4-2.5 3.2-3 17.1.7 7 3.6.4 1.1 2 .3 2.7.1l.9 5.5c.1-1.6 2.3-2.7 2-4.3 1.5-6.1 7.4-1.5 11.1-1.2 1.8 1.6 6-1.2 6.3 2.1 2.4.2 7.7.5 8.2 3.5-3 .4-6.5 2.4-9.5 2.4 0 .5-13.4-1.9-11.1 0 0 .3 9.3 1.3 8.9 2-.4 3.4 3.6 2.8 5.7 2.6-1-2.3 2.3-.6 3.2-.7 1.8-.1 6.1.2 4.6 3.4-1.5.5-5.2-.7-6.6-1.3-.4 1.1-.2 2.7-1.5 3.2-7.1.6-4.6 2.6-9.1 4.9zM507.7.5c1.6.1 4.7.7 5.9 1.9-1.2.2-4.2.6-5.3.4-.6-1-3.3-1.9-.6-2.3z"><title>Norway</title></path>
	<path id="PL" d="M521.3 235.9c1.4-1.6 5.7 1.9 7.4 2.3 2.1 1.5 2.5 6.8 4 9 3 5.4 9.8 14.2.1 16.2-5.3 5.2 1.6 3.9 3.9 7.2 0 2.2-.3 4.3-.5 6.3 1.9 3.6 4.2 7 6.8 10.3 1.3.7 1.6 1.3.2 2.3 1.3 1.6 2.9 3.9.7 5.7-5.8.5-10 8.2-13.6 12.2-1.3.7.7 3.9.9 4.8-.6 1.4.7 2.6 1.8 3.2-1.3 2.3-8-1.6-10.3-1.9-1.1-3.1-5.8-3.2-8.5-3.4-1.5-.1-3.8.2-4.6 1.7-3.5-.5-9.1-2.8-10.6 2.1-2.4-1-3.5.5-3.7-2.9-3.3-1.1-5.1-5.8-7.6-.4-2.8.7-1.9-1.7-4-1.7-.1-2.3-3.9-3.2-3.8-5.6-1.9-.5-5-1.2-6.7-2.4-1.9 2.1-3.9-.7-5.5-1.9 3.8-1.9-.2-2.2-2.2-1.4-1.2-.8-4.1-2.3-5.5-2.5-3.4.3 3.7 1.7-3.1 4.9l-1-.4c-1.2-1.7-3.2-3.7-5.1-4.6 1.9-1.2 3.1-2.4.5-3.5-2.4 1.2-4.5-.4-6.7-1.3-1.5-.5-6.1-.7-5.9-3.3-5.5-2-1.2 1.4-5.3 1.5 4.7-8.3-.9-7.8-3.7-14.7 4.1-4.3-2.6-6.5-.7-10.5-1-2.7-7.7-3.6-5.6-6.8 4.6-2.6.3-7.6-.3-11.2 1.9.7 4.1 1.6 3.4-1.4-1.4.4-7.7-2.5-2.2-1.5 6.1-2.3 14.1-4.4 20.5-5.4 4-5.3 12.2-6.5 18.4-7.8 2-1 11.9.8 10 2.2l-3-1.2c.7 1.1 2.4 3.9 3.3 4.7 2.9 1.8 7.9 1.3 10.8-.4 9 .7 28 1.3 37 1.5z"><title>Poland</title></path>
	<path id="PT" d="M160.5 499.8c-1.8-.1-5.2 3.2-7 2.7-3.7-1.6-9.7-2.6-12.9-.1-1.8-.3 1.8-5.1 1.8-6.5-.1-1.3.1-3.6.4-4.8-1.2-3.2-.1-5.7.1-8.8-1.3-2.7-.5-2.2 1.9-2-3.3-4.2-7 3.3-7.4-3.6 2.7.4 5.2-5.5 2.1-2.8-1.4 3.5-7 2.3-4.3-2 .5-3.7 1.4-6.5 4-9.1 3.8-6.7 5.5-15.7 7.2-23.1-.2-2.9-1.8-6.7-1.6-9.7-1.2-1.5-.9-3.3.6-4.5 1.9-2.6 11.1-4.6 6.9.7.9 2.5 4.6-.6 6.8.1 6 2.5 4.5-2.4 13.6-.9 1.6 1.4-.5 5 2.7 4.4 4.7 1.2-.2 4.6-2.4 5.6-1.6 1.2-3 3.6-4.7 4.6 4.6 13.1-4.8 11.6-.3 14.8 1 10.3-13 2.4-5.6 9.3-.1 2.9 2.2 5 4.1 6.3.1 1.9-2.5 4.3-3.8 5.4-1.5 2.6.2 8.9 3.8 8.1-3.4 6.5-9.2 4.9-6 15.9z"><title>Portugal</title></path>
	<path id="RO" d="M606 371.1c6.6 7.5 10.6-1.5 17 1.2 2.8 1.5 1.9 5.8 1 8.2-3.2.2-6.1 2.9-6.5-1.3-2.7-2.8-.8 2.2-2 3.2-.4 2 .8 3.9-1.2 5.3-1.6 2.4 2.8 10.6-2.1 9.8-2.7-.2-5.7-1.5-7.3-3.8-1.5.9-4.1-.6-5.8-.5-6.8-4.9-15.8 0-21.1 4.8-11.2 1.7-23.6-3.7-34.8-1.9-2.5-6 5.9-.3-5.8-8.4-1.2-1.7.8-2.6 2-3.5-3.9-3.2-4.4-.1-7.7.9-.7-2.6-14-3.8-7.6-5.8-4.7-1.4.7-2.1-1.7-4.2-2.8-.7-6.5-2.5-8.6-4.5-.1-.4.1-5.2-1.2-3.9-1.4-2.8-10.4-5.6-3.2-6.6 1.3 1.2 2.9-.8 3.9-1.5 3.9 1.6 4.6-2.7 5.4-5.3 3.1-1.5 2.3-6 4.9-8.2 1.5-4.7 3.9-9.8 9.7-10.1 7.7-7.3 4.2-2.7 11.3-3 6.2 2.2 11.2-1.1 16 4.3 3.7-2.1 10.2-4.1 14.9-4.2 1.1-3.5 3.4-4.4 7.1-4.1 4.4 1.8 6.1 8 9.5 10.8 2.4 3.1 5.6 6.7 8.9 8.8 2.4 3.8 4.2 8.4 2.4 12.9-.2 1.7.9 6 1.5 7.6-2.1.6.7 2.2 1.1 3z"><title>Romania</title></path>
	<path id="RS" d="M506.1 361c.8 1.4 3.2 3.1 4.6 3.7.5.5 1.7 2.5 2.6 1.8-.8 5.3 4.8 7.4 9 8.6 2.4 2.1-3.1 2.8 1.7 4.2-4.3 1.5.3 1.5 1.6 3.2 1.8.4 5.1.7 6 2.6 3.3-1 3.7-4.1 7.7-.9-4.3 2.2-1.6 3.1.4 5.6-1 .3-1.1 1.8-1.1 2.6-4.9 1.2-1.3 7 .5 9.6 2.1.6 4 3.1 5.8 4.1 0 1.8-2.3 3.2-3 4.7-7.1-.7 1.4 8-3.6 8.9-1-1-2.7-.3-3.7.1-1.1-.5-2.9 0-3.9.6-4.9 1.3-1.1-2.8-.6-5.1 1.4-1.9-3.8-1.9-4.5-2.4.3-1.8-5.5-5.9-7.5-6.6-1-2.1-3.6-.7-2.2 1.2-.2 1.5-2.7 1.9-2.1 3.7-1 1.1-5.1-3-6.9-3.4-3.7-.7-8.1-4-10-7 .4-1.2 2.4-.5 3.2-.5 1.1-1.9-1.9-4.6-3-5.9.3-1.8 3.8.4 3.9-1.5-3.5-3.4-9.1-4.6-4.5-10.2 2.5-6.2-5.7-.5-2.8-4.2-2.9-5.4 5-1 2.4-4.6-1.9-.6-5.3-1.3-3.8-4-1.1 0-1.6-1-1.5-2-.6-1-2.2-3.1-.9-4.2 1.7-1.7 4.1-.4 5.9-1.8 1.8-3 7.5-1.8 10.3-.9z"><title>Serbia</title></path>
	<path id="SK" d="M529.3 315.6c-1.5 2.2-1.7 6-3.9 7.6 1.2 2.9-2.8 3.6-4.8 3.4-2.4-4.4-7-1.8-10.7-3-6.5-1.2-4.4 4.6-11.1 6.3-1.7-.6-4.4-2.5-5.2.3-2.2.9-6.1.4-8.1 1.7-.8 1.1.6 2.3-.5 3.3-2.8.2-8.9.5-11.7.3-2.3-.7-5.4-3.9-7.9-3.7-1.2-1.6-3.8-4.5-4-6.6 1.2-3.6 2.4-7.8 7-5.9 3.3-.3 7.4-3.2 7.6-6.6 2.6-1.1 4.5-4.2 7.7-3.8 1.1-.1 1.6.7 1.8 1.7 2.5.7 3.2-2.3 5.4-3 .8.8 3.1 3.5 4.4 3.4.4 1.2.1 3.5 2 2.3 4.2 1.5.5-5 12.3-1.5 2.3-3.2 8.1-1.4 11.3-.4 1.5 2.1 5.8 3.7 8.4 4.2z"><title>Slovakia</title></path>
	<path id="SI" d="M459.7 355c-1.9-.7-3.9-.7-3.4 1.9-1 0-2.4-.2-2.7 1-5.1 1.9-5 1.1-3.7 6.2-.2 1.8-3.4 1.7-4.6 2.7.5.6 1.4 1.2.3 1.8.2 1 1.6 2.7-.4 2.7-3.3-.7-6.6-.3-9-3.2-.6 2.9-4.3 3.2-6.5 2.1-.9 1.8-4.2 1.1-5.2-.1 1-1.3 3.9-.5 3-2.5-1.3-1.5-4.3-1.9-3-4.4-2.8.1-.9-2.3 0-3.3-6.1-1.5-.4-2.8.5-5.3 2.5.5 7.5 1.3 10 1.6 3-.8 5.1-3.9 8.5-3.4 3.1.8 6-2 9.1-.6-.5-2.5 1.8-3.1 3.8-2.7.5 1.6 2.1 4.4 3.3 5.5z"><title>Slovenia</title></path>
	<path id="SE" d="M445.6 207.3c-5.7-2.8 3.3-11.1 3.9-15.5.8 4.4-3.4 10.6-3.9 15.5zm26.2-22.7c-2.3 1.8-4.4 4.1-1.1 6.4-1.1.1-1.8 1.3-2 2.3-1.2.1-2.7 1.3-3.3 2.2.2 1.4-1.2 2.2-2.4 2.5 1.9-2.1.1-3.3-1.1-5.2.7-.6-.1-3.4-.2-4.1 2.2-2.8 6.6-6.9 10.1-4.1zm36.8-113c-3.3.6-7.8-1-10.8 1-2.2-.4-4.1-2.8-6.1-.8-1.6-1.2-1.8-.8-2.6.9.1 1.9.1 1.9-1.7 1.6 1.1 2.4-3.3 2.8-4.9 2.8.3 1 1.1 1.6-.2 2.2.9 1.3 1 2.1-.3 3.2-1.5 1.4-3.9 2.8-.9 4 .3 1.9 3.9 3.1 2.8 4.8-3 1-5.4 4.2-6.3 7.1-3.5 1.9-8.1 3-10.9 5.8-.9-.5-2.3-1-3.3-.3-.8 2.2-2.9 3.9-5.3 3.1.9 1.3-1.5.8-2.1 1.1-.6 5-2.7 5.1-6.9 4.9 2.8 3.5.4 4.3-2.8 5.3-2.1-1.3-2.7-.1-1.3 1.7.8.5 1.6 1.3 1.2 2.3-.3 1.4-1.3 4.9-.2 6.1-3 1.1-2.7 2.5-2.4 5.1 1.5 3.2 1.3 8.5 3.8 10.6 2.9-.5 3.2 2.5 6.6.7 1.4 2.6 5.1 3.3 7.3 4.8-.3 2.8 4.9 2.2 5.6 6.1-.8 2.5-5.6 4.4-7.8 5.9-1.9 0-3.8 1.1-.7 1.5 1.8-1.9 8.4-.6 3.2.4.2 3.1-3.9 3.3-5.9 4.8-6 2.4-9.3 5.6-16.5 4.3 1.6 1.7 5.6 0 7.2 2.4-3.5.3-2.8 1.7-1.3 4.1-1.2.4-.3 3.5-.3 4.3-2.9 0-.5 4.7.2 6.1.2.9-1.2 2.7-1.6 3.4 1.4 2 .1 6.2-.6 8.2-2.6 2.4-2.4 10.8-7.4 7.7-3.1 1-7.4-.5-10.4.8 1.9 2.5-2.2.4-3.3 2.3-5.5 3.4 3.5 7.2-2.9 8.6-3.1-1.2-13.3 2.6-13.3-1.3.3-2.1.4-4.8-1.7-5.9-1-1.6-3.8-4.3-4.3-6.1 1 0 2.6 1.5 3.4.4l-1.8-2.6c1.9 0 3.6-.4 2.3-2.6-4.4-1.9-8.7-7.5-10.4-12.1-1.6 1.4-1.8-2.7-2.3-3.4-2.1.1-2.1-2.9-2.3-4.3-2.7 0-3.5-3.1-3.5-5.3-2.7-1-2.7-5.3-3.1-7.7-.7-1.2-1.5-3.2.7-3.2 1.6 1.3 3.4 4.5 4.7 1 .9-2.3.1-6.2-1-8.3 1.1-.7 2.1-2.7 2.4-3.9 4.9-.4 6-4.3 6.5-8.4-8.6-14.4.5-3.1 2-12.9-4.9-4.5-10.3-3.2-7.5-11.6.6-2.4-3.3-5.4-2.4-7.8-1-4.1 1.5-3.7-2.2-8 8-21.2 25.6-2 20.4-16.4-9.6-1.2 1.6-6.7 3-11.6.1-1.6 0-5.8.7-7.4-1.3-3.3-2-4.4 2.4-4.3 2.5-.6 7.3-1.2 4.7-4.5 3-2 6-5.9 9.1-7.7.4-.8-.1-2.1-.8-2.7-6.7-4.9 2.3-1.8 3.1-8.6 1.1-.3 4.2-2.4 5.2-2.8 16 5.9.4-10 13.8-5.3 2.7-.4 9.8 1.8 12.5 1.9 2.7-1.3 2.6-1.9-.4-2.5 3.4-1.2 4.2-5.3.3-6.4l5.1-.2c4.7 1.6 10.1 5.1 15.2 6.9 6.7.5 12.9 4.2 18.1 7.6-2.6 1.5.8 4.5-.3 6.7.9.4 3.5-.1 3.4 1.7-3.7 2.5 2.6 5 3.6 7-1 1.5-.1 3.6-2.1 4.5-.2 4.2 5.4 5.2 6.6 9.2z"><title>Sweden</title></path>
	<path id="TR" d="M588 453.6c-1.2 0-3.5 1.4-3-1 1.4-.6 2.6-.9 3 1zM782.4 432c2.8 1.8 6.1.1 9 .4 4.2 1.8 2.9-.6 5.7-1.5 2.5 1.1 6.2 3.4 7.8 6 2.8-.3 4 3.1 6.2 4.2 3.9 5.3-1.7 6.5 3.2 11.9-1.4 1.2 3.3 1.9 4.2 2.4 2.4-.8 5.7 0 7.4 2 .1.7 4 3 4 3.7-4.3-3.4-5-.6-4.8 3.5-1 .9-3.5-.1-4.6.7.5 2.2 3.3 3.6 2.6 6 2 1.6 2.3 4.6 3.2 6.8.1 4.4 3.3 1.6 1.6 7-3.7 4.4 4.1 3.6 4 7.1.5.8.8 2.6.9 3.5 1.8.7 6 5.8 1.1 4.1-1.8.4-3.4 4.7-4.9 1.9 0-3.3-2.6-5.4-5.2-2.7-5 .5-12.2-4.8-15.6-.4-2.3 2.5-3.3 2.9-4.8-.4-1.2-.5-1.8.3-2.5 1.1-1.1.7-5.4 1.5-6.8 1.8-13.6-1.7-15.1 4.2-27.1 6.4-7.6.9-9.5-2.1-15.6-3.4-9.9 4.7-9.8 5-19.6 1.5-1.3 2.5-1 6.3.9 8.5-2.1.5-4 1.6-3.3 4-1.1.3-2.3 1.6-2.6 2.7-.7-.5-2.4-1.3-3.2-1.3 1.7-1-1.5-5.1-1.8-6.2.6-2.5 5.4-4.8 3.8-7.8-1.6-2.3-3.3-.8-4.9.5-1.7.2-1.8 2.1-3.1 2.8-3.2 1-7-1.7-9.8-3.1-5.9-1-8 8.3-13.3 9.6-7.9 1.4-16 4.5-20.8-4.2-5.3-3-15.2-8.8-20.7-5.4 0 2.5.4 6.9-1.6 8.7-4.6-2.2-7.4 3.6-13.5-.3-2.7-1.2-3.7-4.3-4.8-6.8-2.3.8-5.3-.6-7.3-1.7-2.9-1.4-3.3 3.5-5.9 2.1 2.6-2.6-2.1-.6-2.9-1.1-1.1.9-3.4 1.6-4.3-.1 4.3-1.1 6.1-.4 9.4-3.9-3.2-1.8-12 1.7-12.8-1.3 8.3-2.7-.5-2-3.2-9.6 2.2 0 1.9-1.4 2-3 0-3.1-5.3-1.7-6.2-4-.5-.6-2.3-1.1-2.9-.2-.9-.8-5.3-1.2-3.4-3.4 1.9-1.1-.2-2.5 0-4 1.3-.2 2.1 0 2.8 1-.5 3.6 4.5 2.9 6.8 2.3-2.1-.5-4.1-2.5-4.8-4.6 2.9-1.4 3.7-3.1.3-4 1-4.6-5-4.2.3-8.7-2.6-2.6-10 3.6-10.5-.8 1.6-2-1.8-6.7 2-7.1 1.7-2.9 4.3-6.8 8.2-5.8 2.4-2.4 3.9.3 6.1 1.2 8.4.1.8-2.5 4.7-3 1.7.1 1.4.9 1.4 2.2 4.2-1.1 10 .8 13.8-.8-9.2-3.4 5.8-4.1 8.9-5.2-2.4-.2-7.4-.8-9.1-2.8-5-8.6 11.4-1.5 15.1-4.1 3.9 1.2 12.7 4.2 13.9-1.9 7-4.3 14.7-9 22.8-10.8 6.8 1.2 16.3.7 22.4-.2-1 3.3 3.5 5.3 6 6.1 1.3-.2 4.9-1.8 6.2-.7 1.1 2.3 2.9 5.6 5.5 6.3 3.6-.2 4.1-3.5 8.6 1.4 5.5.9 11.8 3.1 17.3 4.1 9.6-2.5 12.4-3.2 22.2-.3 5.3-1.6 12.3-4.7 15.9-8.9zm-171.9-7c-.7 6.5 8.6 9.3 13.3 11.2 2.5-.4.5 2.7.5 3.8-1.4 1.1-7-.7-8.5-1-2.2-.5-4.5 2.1-6.8.9-4.6.1-3.8 5.5-9 7-4 .6-5.8 6.1-9 7.6 0-4.1 1.9-5.9 5.8-7.3 2.7-2.7-4.1-.5-4.7-1-9.3.3 1.3-3.8-1.5-9.8 3.8-1.6 4.2-5.4.2-7.1-1.2 0-1.3-.7-.9-1.7 1.6.2 2.5-1.2 2.9-2.5 1.3 0 4-.4 4.9-1.5 8-1.1 1.4 2.9 12.8 1.4z"><title>Turkey</title></path>
	<path id="UA" d="M651.2 359.5c.4 1.3-4.6-.3-4.8-1.1 0-.1 4.8 1.1 4.8 1.1zm-26.4 14.6c-5.7-6.7-10.7 3.6-17.4-1.4-4.1-3.7 1.8-1 2-3.5-1.6-2 2.7-3.5 2-5.6 2.1-1.1 3.6-3.3 1.7-5.4-1.7-6.8 6.8-.6 9.7-2.3 2 2.7 7.5.5 1.8-1.5 1.1-6-7.6-4.7-6.2-10.9-7.3-4.6-4.8-2.2-5.8-9.8-.7-1-1.7-1.7-2.8-.7-2.2-2.6-5-3.6-8.4-3.5-.1-1.4-2.1-1.4-3.1-1.5-2.9-2.5-7.8-4.5-10.7-1.7-2.1.1-6.3-.9-7.2 1.7-3 .1-3.9 1.4-5 4.1-2.3.3-9.8 1.2-11.8 2.5-1.7 3.6-5.6-.2-7.4-1.6-3.1 0-8.5.2-11.7-1-1.9.7-4.4-1.1-6.1-1.4-2.4 3-2.6 2-4.6-.3-2 .1-3.5-1.9-5.4-2.3-.2-1-1.7-2.9-2.9-2.3-.1-1.5 0-3.3 1.5-4.2 1-3.1 1.5-7.3 5.6-5.2-3.5-9.4-4.2-7 3.5-16 3.2-4.9 9.8-4.5 8.9-8.2-.4-1.1-2.9-2.9-.6-3.9-3.1-2.9-6.7-6.9-7.3-11.1 1.9-1.3 4.3 1.2 6-.9 8.6-8.8 24.6-1.3 35.7-1.3 1.5 3.9 6.4.7 7.7 4.1.8-1.3 1.5-2 3.1-1.2 5-2.6 8.7 3.8 9.4.8 3.6-2.2 4.5-1 6.9 1.9 2.6-.9 9.1-2.2 11.4-.3 0 1.4 2.3 1.8 3.2 2.1 1.6-1.1-.5-3.9-1-5 .9-7.8 9.6-8.9 15.8-6.8 4.3.6 2.8-3.4 5.6-4 2.2 1 5.4 1 7.4-.4 2-.4 5 .3 7-.1 2.3.9 4.5 3.3 5.6 5.5 1.9 1.9 7.1 4.1 1 4.5 1 1.7 3.2 4.9 2.6 6.6 1.6-.1 4.6.4 6 1.1 1.9-.2 5-1 5.6 1.7 2.3-.5 2.5 2.4 3.5 3.9.8.7 1 1.9.7 2.9 1.6 2.3 3.8 5.3 6.5 2.6 1.7-.1 4.3 1.2 5.5 2.4 1.1-.2 3.2.1 4 1.1.8-1.5 4.3-1.9 5.7-2.2 1.9-1.4 4.2-.8 5.6.9.6 2.4 4.8 4.5 6.7 5.7 2.3-1.1 2-2.9 4.8-.7 3-.5 6.1 3.5 9 1.6 1.9 2.1 6 2.6 8.3 4.3.6 0 3.6-.7 3.9.5-.3 1.8 1.4 3.2.8 5.2-2.8 3.5-6.5 3.4.2 5.3-2 1.7-3.4 0-3.4 4 1.8 0 3.4 1.7 3.7 3.5-.5 1 .5 1.3 1.2 1.4l-1.3 4.7c.4 4.2-8.6.8-11.2 1.9-3.5 7.2-7.4-1.6-5.2 11.5-3.4.3-8.4-1.2-10.3 2.6-3.2-1-5.4 4.2-7.5 2.4-2.6.1-5.2 2.2-7.9 1.5-1.8-.1-5.7 3.3-6.9 4.4-2.9 0-2-1.8-3.9 1.7-2.6.5-2.4 2.3-1.8 4.3 2.3 3.7 5.8 9.6 10.5 10.5 1.2-.9 4-1.7 5.5-1 1.6-2.1 4.9-.9 6.9-.3-1.5 1.8-.4 5.7-3.3 5.7-1.2-.2-3.3 0-4.4.3-1.3-1-3.6-1.8-5.2-1.5-.5 2.1-3.5 2.6-4 4.6-1.2-.3-3.5-.3-4.7-.1-5.9 3.1-7.2 10.4-15.1 4 1.1-2.5 1.6-6 0-8.4-1.3-1.4-3.2-1.1-4.8-1.5-1.2-.9-4-2.8-5.6-2.6-7.4 1.3 1.4-4.6 3.6-6 2.6-.3 7.7-2.4 4.7-5.3-1.3.8-3 .3-4.1-.5-2.1-1.4-6.9.5-9.6.7-2.4-.9-5.8-3.2-8.5-3.1-.5-1.3 1-1.1 1.8-1.3.9-2.4-4.7-.2-3.8-2.9 3.2.4 7.9 2.4 10.2-.6-1.3.5-3.9.4-5.3 0-1.3-1.6-2.7-2-4.3-.6-2.5-1-5.4.6-7.9.1-6.4.5-3.9 7.2-9.6 11.7l-4.6 2.1c-1.6-.9-3.1.3-2.4 2 1.4.8 2.3 3.7 2 5.3z"><title>Ukraine</title></path>
	<path id="XK" d="M528.5 420.6c-1.5-.1-2.9 1.1-3.6 2.3-1.5-2.2-4.2-.4-6 .4-.1 1.6.1 4.2-2.4 3.1.1-7.5-6.4-5.8-8-13.3 1.9-.2 3.2-1.7 5.3-2-.4-1.2.8-2.2 1.7-2.7.6-.7.1-1.9-.2-2.6 1.2-.8 2.1-1 2.8.4 5.3 1.7 6.7 7.5 12.2 7.8.3 2.4-2.9 4.9-1.8 6.6z"><title>Kosovo</title></path>
</svg>
